<svg width="24" height="26" viewBox="0 0 24 26" fill="none" xmlns="http://www.w3.org/2000/svg">
<path fill-rule="evenodd" clip-rule="evenodd" d="M22 12.9999C22 18.527 17.5242 23.0052 12 23.0052C6.47581 23.0052 2 18.527 2 12.9999C2 7.4728 6.47581 2.99463 12 2.99463C17.5242 2.99463 22 7.4728 22 12.9999ZM17.1613 13.242C17.1613 13.5083 16.9435 13.7261 16.6774 13.7261H12.7258V17.6798C12.7258 17.9461 12.5081 18.1639 12.2419 18.1639H11.7581C11.4919 18.1639 11.2742 17.9461 11.2742 17.6798V13.7261H7.32258C7.05645 13.7261 6.83871 13.5083 6.83871 13.242V12.7579C6.83871 12.4916 7.05645 12.2737 7.32258 12.2737H11.2742V8.32003C11.2742 8.05376 11.4919 7.8359 11.7581 7.8359H12.2419C12.5081 7.8359 12.7258 8.05376 12.7258 8.32003V12.2737H16.6774C16.9435 12.2737 17.1613 12.4916 17.1613 12.7579V13.242ZM12 4.28563C16.7863 4.28563 20.7097 8.16268 20.7097 12.9999C20.7097 17.7887 16.8347 21.7142 12 21.7142C7.21371 21.7142 3.29032 17.8372 3.29032 12.9999C3.29032 8.2111 7.16532 4.28563 12 4.28563Z" fill="#FF861A"/>
<mask id="mask0_268_18580" style="mask-type:alpha" maskUnits="userSpaceOnUse" x="2" y="2" width="20" height="22">
<path fill-rule="evenodd" clip-rule="evenodd" d="M22 12.9999C22 18.527 17.5242 23.0052 12 23.0052C6.47581 23.0052 2 18.527 2 12.9999C2 7.4728 6.47581 2.99463 12 2.99463C17.5242 2.99463 22 7.4728 22 12.9999ZM17.1613 13.242C17.1613 13.5083 16.9435 13.7261 16.6774 13.7261H12.7258V17.6798C12.7258 17.9461 12.5081 18.1639 12.2419 18.1639H11.7581C11.4919 18.1639 11.2742 17.9461 11.2742 17.6798V13.7261H7.32258C7.05645 13.7261 6.83871 13.5083 6.83871 13.242V12.7579C6.83871 12.4916 7.05645 12.2737 7.32258 12.2737H11.2742V8.32003C11.2742 8.05376 11.4919 7.8359 11.7581 7.8359H12.2419C12.5081 7.8359 12.7258 8.05376 12.7258 8.32003V12.2737H16.6774C16.9435 12.2737 17.1613 12.4916 17.1613 12.7579V13.242ZM12 4.28563C16.7863 4.28563 20.7097 8.16268 20.7097 12.9999C20.7097 17.7887 16.8347 21.7142 12 21.7142C7.21371 21.7142 3.29032 17.8372 3.29032 12.9999C3.29032 8.2111 7.16532 4.28563 12 4.28563Z" fill="white"/>
</mask>
<g mask="url(#mask0_268_18580)">
<rect y="0.993652" width="24" height="24.0127" fill="#FF861A"/>
</g>
</svg>
