<svg width="16" height="17" viewBox="0 0 16 17" fill="none" xmlns="http://www.w3.org/2000/svg">
<g id="alert_danger">
<path id="Shape" fill-rule="evenodd" clip-rule="evenodd" d="M15.8199 13.9883C16.3326 14.9887 15.6891 16.2391 14.665 16.2391H1.33484C0.308813 16.2391 -0.331798 14.9867 0.179925 13.9883L6.84509 0.98058C7.35806 -0.0202306 8.64287 -0.0184172 9.15492 0.98058L15.8199 13.9883ZM8.00001 11.299C7.29431 11.299 6.72223 11.9429 6.72223 12.7373C6.72223 13.5316 7.29431 14.1755 8.00001 14.1755C8.7057 14.1755 9.27779 13.5316 9.27779 12.7373C9.27779 11.9429 8.7057 11.299 8.00001 11.299ZM6.99292 10.3815L6.78687 6.12921C6.77645 5.91428 6.92845 5.73356 7.11967 5.73356H8.88031C9.07154 5.73356 9.22356 5.91428 9.21315 6.12921L9.00709 10.3815C8.99745 10.5804 8.85129 10.7362 8.67426 10.7362H7.32576C7.14873 10.7362 7.00256 10.5804 6.99292 10.3815Z" fill="#EB0000"/>
<mask id="mask0_12_445" style="mask-type:alpha" maskUnits="userSpaceOnUse" x="0" y="0" width="16" height="17">
<path id="Shape_2" fill-rule="evenodd" clip-rule="evenodd" d="M15.8199 13.9883C16.3326 14.9887 15.6891 16.2391 14.665 16.2391H1.33484C0.308813 16.2391 -0.331798 14.9867 0.179925 13.9883L6.84509 0.98058C7.35806 -0.0202306 8.64287 -0.0184172 9.15492 0.98058L15.8199 13.9883ZM8.00001 11.299C7.29431 11.299 6.72223 11.9429 6.72223 12.7373C6.72223 13.5316 7.29431 14.1755 8.00001 14.1755C8.7057 14.1755 9.27779 13.5316 9.27779 12.7373C9.27779 11.9429 8.7057 11.299 8.00001 11.299ZM6.99292 10.3815L6.78687 6.12921C6.77645 5.91428 6.92845 5.73356 7.11967 5.73356H8.88031C9.07154 5.73356 9.22356 5.91428 9.21315 6.12921L9.00709 10.3815C8.99745 10.5804 8.85129 10.7362 8.67426 10.7362H7.32576C7.14873 10.7362 7.00256 10.5804 6.99292 10.3815Z" fill="white"/>
</mask>
<g mask="url(#mask0_12_445)">
</g>
</g>
</svg>
