<svg width="20" height="20" viewBox="0 0 20 20" fill="none" xmlns="http://www.w3.org/2000/svg">
<path id="Checkbox_Selected" fill-rule="evenodd" clip-rule="evenodd" d="M2.14286 0H17.8571C19.0402 0 20 0.959821 20 2.14286V17.8571C20 19.0402 19.0402 20 17.8571 20H2.14286C0.959821 20 0 19.0402 0 17.8571V2.14286C0 0.959821 0.959821 0 2.14286 0ZM3.93305 9.49711C3.68898 9.75898 3.68898 10.1835 3.93305 10.4453L7.99555 14.8036C8.23962 15.0655 8.63535 15.0655 8.87944 14.8036L16.0669 7.09285C16.311 6.83098 16.311 6.40645 16.0669 6.14461L15.1831 5.19638C14.939 4.93454 14.5433 4.93454 14.2992 5.19638L8.4375 11.4848L5.7008 8.54888C5.45673 8.28702 5.06098 8.28702 4.81691 8.54888L3.93305 9.49711Z" fill="#FF861A"/>
</svg>
