<svg width="256" height="256" viewBox="0 0 256 256" fill="none" xmlns="http://www.w3.org/2000/svg">
<path d="M113.556 19.5737H166.093V47.3395H127.452C126.31 49.1008 123.899 53.0893 123.899 53.0893L121.119 47.3395H113.556V19.5737Z" fill="#FAFAFA"/>
<path d="M113.556 19.5733C113.556 19.5733 113.562 19.7474 113.567 20.0751C113.567 20.4079 113.572 20.8943 113.577 21.5241C113.582 22.7989 113.592 24.6677 113.602 27.069C113.613 31.8716 113.633 38.7989 113.654 47.3391L113.556 47.2418C115.947 47.2418 118.477 47.2367 121.119 47.2316H121.185L121.216 47.293C122.086 49.0953 123.028 51.0357 124.001 53.0428L123.802 53.0325C124.918 51.2252 126.121 49.2745 127.355 47.2777L127.391 47.2213H127.457C138.076 47.2213 150.057 47.2111 162.688 47.2111C163.83 47.2111 164.971 47.2111 166.098 47.2111L165.965 47.3442C165.965 37.5394 165.97 28.1801 165.975 19.5785L166.098 19.7013C150.697 19.6809 137.574 19.6655 128.292 19.6501C123.658 19.6348 119.987 19.6194 117.463 19.6092C116.203 19.6041 115.236 19.5938 114.57 19.5938C114.248 19.5938 113.997 19.5887 113.823 19.5887C113.654 19.5887 113.562 19.5836 113.562 19.5836C113.562 19.5836 113.643 19.5836 113.807 19.5785C113.981 19.5785 114.222 19.5785 114.545 19.5733C115.205 19.5733 116.168 19.5631 117.417 19.558C119.941 19.5477 123.622 19.5324 128.256 19.517C137.549 19.5068 150.687 19.4863 166.103 19.4658H166.226V19.5887C166.226 28.1903 166.231 37.5497 166.236 47.3545V47.4876H166.103C164.977 47.4876 163.835 47.4876 162.693 47.4876C150.062 47.4876 138.081 47.4773 127.462 47.4773L127.565 47.421C126.331 49.4178 125.122 51.3634 124.006 53.1657L123.894 53.3449L123.802 53.1554C122.834 51.1484 121.897 49.2079 121.026 47.4005L121.124 47.462C118.482 47.462 115.958 47.4569 113.562 47.4517H113.464V47.3545C113.485 38.7887 113.505 31.8409 113.515 27.0229C113.526 24.6319 113.536 22.7733 113.541 21.5036C113.541 20.8789 113.551 20.4028 113.551 20.07C113.551 19.7474 113.562 19.5887 113.562 19.5887L113.556 19.5733Z" fill="#E0E0E0"/>
<path d="M125.988 33.2391C126.843 32.8858 127.457 32.0154 127.473 30.976C127.488 29.6192 126.469 28.5031 125.194 28.4826C123.919 28.4672 122.875 29.5527 122.854 30.9146C122.839 31.9642 123.443 32.8602 124.303 33.2237C120.75 33.7306 120.878 37.5911 120.878 37.5911L129.275 37.6986C129.275 37.6986 129.5 33.7971 125.983 33.2391H125.988Z" fill="#E0E0E0"/>
<path d="M158.915 29.3219C158.915 29.3731 153.559 29.4192 146.954 29.4192C140.349 29.4192 134.994 29.3782 134.994 29.3219C134.994 29.2656 140.349 29.2246 146.954 29.2246C153.559 29.2246 158.915 29.2656 158.915 29.3219Z" fill="#E0E0E0"/>
<path d="M158.915 32.1842C158.915 32.2354 153.559 32.2815 146.954 32.2815C140.349 32.2815 134.994 32.2405 134.994 32.1842C134.994 32.1279 140.349 32.0869 146.954 32.0869C153.559 32.0869 158.915 32.1279 158.915 32.1842Z" fill="#E0E0E0"/>
<path d="M158.915 35.0465C158.915 35.0977 153.559 35.1438 146.954 35.1438C140.349 35.1438 134.994 35.1028 134.994 35.0465C134.994 34.9902 140.349 34.9492 146.954 34.9492C153.559 34.9492 158.915 34.9902 158.915 35.0465Z" fill="#E0E0E0"/>
<path d="M149.299 38.6664C149.299 38.7227 146.099 38.7688 142.147 38.7688C138.194 38.7688 134.994 38.7227 134.994 38.6664C134.994 38.61 138.194 38.564 142.147 38.564C146.099 38.564 149.299 38.61 149.299 38.6664Z" fill="#E0E0E0"/>
<path d="M135.101 197.709L137.738 200.187C137.902 200.345 138.138 200.407 138.358 200.361L141.896 199.593C142.459 199.47 142.915 200.043 142.669 200.566L141.128 203.842C141.03 204.047 141.041 204.288 141.158 204.488L142.981 207.616C143.273 208.112 142.863 208.727 142.295 208.655L138.706 208.2C138.481 208.169 138.255 208.256 138.102 208.425L135.69 211.128C135.306 211.558 134.6 211.359 134.492 210.795L133.816 207.237C133.775 207.012 133.622 206.822 133.412 206.73L130.099 205.271C129.572 205.04 129.541 204.303 130.043 204.027L133.217 202.286C133.417 202.178 133.55 201.974 133.576 201.748L133.939 198.149C133.996 197.576 134.687 197.32 135.107 197.714L135.101 197.709Z" fill="#EBEBEB"/>
<path d="M205.204 32.7066L208.471 36.6234C208.676 36.8692 208.993 37.0023 209.311 36.9716L214.39 36.5006C215.199 36.4238 215.736 37.3095 215.306 37.9956L212.587 42.3118C212.419 42.5831 212.388 42.921 212.516 43.218L214.533 47.9028C214.856 48.6452 214.18 49.4337 213.396 49.234L208.451 47.9847C208.138 47.9079 207.811 47.9847 207.565 48.1998L203.73 51.5636C203.121 52.0961 202.163 51.7018 202.112 50.8929L201.774 45.8036C201.754 45.481 201.574 45.1943 201.298 45.0305L196.91 42.4244C196.214 42.0097 196.296 40.9806 197.048 40.6785L201.784 38.7841C202.081 38.6663 202.301 38.4052 202.373 38.0929L203.494 33.1162C203.674 32.3278 204.677 32.082 205.199 32.7066H205.204Z" fill="#EBEBEB"/>
<path d="M236.257 148.281L236.687 149.919C236.713 150.021 236.79 150.108 236.892 150.144L238.49 150.718C238.746 150.81 238.781 151.153 238.556 151.296L237.128 152.213C237.036 152.269 236.984 152.371 236.979 152.474L236.928 154.169C236.918 154.44 236.605 154.578 236.395 154.409L235.08 153.334C234.998 153.267 234.885 153.242 234.783 153.273L233.155 153.744C232.893 153.82 232.663 153.564 232.76 153.313L233.375 151.731C233.416 151.634 233.4 151.522 233.339 151.429L232.387 150.026C232.233 149.801 232.407 149.504 232.673 149.52L234.368 149.617C234.475 149.622 234.578 149.576 234.644 149.494L235.684 148.153C235.848 147.937 236.186 148.009 236.257 148.27V148.281Z" fill="#EBEBEB"/>
<path d="M234.931 114.022L234.506 119.106C234.481 119.429 234.614 119.741 234.859 119.946L238.807 123.177C239.432 123.689 239.201 124.698 238.413 124.882L233.446 126.049C233.134 126.121 232.878 126.346 232.76 126.643L230.907 131.394C230.615 132.147 229.581 132.239 229.161 131.548L226.514 127.186C226.345 126.909 226.058 126.735 225.736 126.715L220.641 126.423C219.832 126.377 219.428 125.425 219.955 124.81L223.288 120.945C223.498 120.699 223.575 120.371 223.493 120.059L222.198 115.123C221.993 114.34 222.776 113.659 223.519 113.976L228.224 115.953C228.521 116.075 228.859 116.05 229.13 115.876L233.421 113.121C234.102 112.686 234.987 113.218 234.921 114.022H234.931Z" fill="#F5F5F5"/>
<path d="M31.8618 111.17L34.7495 114.037C34.9338 114.217 35.1898 114.299 35.4407 114.253L39.4394 113.5C40.0743 113.382 40.5709 114.043 40.2791 114.616L38.4461 118.246C38.3284 118.477 38.3335 118.748 38.4564 118.973L40.4071 122.542C40.7194 123.11 40.2433 123.786 39.6033 123.684L35.5841 123.059C35.3281 123.018 35.0721 123.11 34.898 123.294L32.1076 126.254C31.6621 126.725 30.8737 126.479 30.7713 125.844L30.121 121.83C30.0801 121.579 29.9162 121.359 29.6858 121.252L26.0097 119.511C25.426 119.234 25.4106 118.41 25.9892 118.113L29.609 116.254C29.8394 116.137 29.993 115.917 30.0237 115.661L30.5409 111.626C30.6228 110.986 31.4061 110.72 31.8618 111.17Z" fill="#EBEBEB"/>
<path d="M240.978 226.222C240.978 226.294 190.623 226.355 128.522 226.355C66.4218 226.355 16.0513 226.294 16.0513 226.222C16.0513 226.15 66.3962 226.089 128.522 226.089C190.648 226.089 240.978 226.15 240.978 226.222Z" fill="#263238"/>
<path d="M87.2653 82.7337L88.9088 85.1299C89.0112 85.2835 89.1853 85.3705 89.3696 85.3705H92.2777C92.7385 85.3756 92.9997 85.9081 92.7181 86.2716L90.9465 88.5756C90.8339 88.719 90.8032 88.9135 90.8595 89.0876L91.7555 91.8524C91.8989 92.2927 91.4739 92.7023 91.0387 92.5487L88.2995 91.5759C88.1254 91.5145 87.936 91.5401 87.7875 91.6476L85.4323 93.3526C85.0585 93.6239 84.5363 93.3526 84.5465 92.8867L84.6233 89.9785C84.6233 89.7942 84.5414 89.6201 84.3929 89.5126L82.0429 87.7974C81.6691 87.526 81.7715 86.9423 82.2118 86.8143L85.0022 85.99C85.1763 85.9388 85.3145 85.8006 85.376 85.6265L86.2771 82.8617C86.4205 82.4214 87.0041 82.3395 87.2653 82.7183V82.7337Z" fill="#FF861A"/>
<path d="M215.905 141.265L217.963 142.335C218.091 142.402 218.25 142.402 218.378 142.335L220.426 141.245C220.749 141.071 221.133 141.347 221.071 141.711L220.692 143.999C220.667 144.143 220.718 144.291 220.82 144.394L222.49 146.001C222.756 146.257 222.612 146.708 222.249 146.759L219.955 147.107C219.812 147.128 219.684 147.22 219.622 147.353L218.609 149.437C218.45 149.77 217.979 149.77 217.81 149.437L216.771 147.363C216.704 147.23 216.581 147.143 216.433 147.123L214.134 146.8C213.77 146.749 213.622 146.303 213.883 146.042L215.537 144.414C215.639 144.312 215.69 144.163 215.665 144.02L215.26 141.736C215.194 141.373 215.578 141.096 215.9 141.265H215.905Z" fill="#FF861A"/>
<path d="M101.002 72.9341L101.437 74.2551C101.463 74.337 101.53 74.4035 101.617 74.4291L102.953 74.8234C103.163 74.8848 103.214 75.1664 103.035 75.2944L101.914 76.1187C101.842 76.1699 101.801 76.2519 101.806 76.344L101.847 77.7367C101.852 77.9568 101.601 78.0899 101.422 77.9619L100.296 77.1479C100.224 77.0967 100.132 77.0813 100.05 77.112L98.7392 77.5779C98.5293 77.6547 98.3296 77.4551 98.3961 77.2451L98.8211 75.9191C98.8467 75.8371 98.8313 75.745 98.7801 75.6733L97.9302 74.5725C97.7971 74.3984 97.92 74.1424 98.1401 74.1424H99.5328C99.6198 74.1424 99.7018 74.0963 99.753 74.0195L100.536 72.8727C100.659 72.6883 100.941 72.7293 101.007 72.9392L101.002 72.9341Z" fill="#FF861A"/>
<path d="M139.305 65.244L156.785 100.659C157.886 102.891 160.015 104.438 162.483 104.796L201.569 110.474C207.775 111.375 210.253 119.004 205.763 123.382L177.48 150.948C175.698 152.683 174.884 155.192 175.304 157.645L186.598 198.978C186.895 204.344 178.473 208 171.003 204.544L136.044 186.163C133.842 185.006 131.205 185.006 129.004 186.163L94.0442 204.544C88.4942 207.462 82.0071 202.747 83.067 196.567L89.7434 157.639C90.1633 155.187 89.3492 152.683 87.5674 150.943L59.2846 123.376C54.7943 118.999 57.2724 111.375 63.4778 110.469L102.564 104.791C105.027 104.432 107.157 102.886 108.262 100.654L125.251 66.227C127.37 61.9416 129.935 60.252 138.03 60.252C140.728 60.252 137.923 62.4228 139.31 65.2337L139.305 65.244Z" fill="#FF861A"/>
<path opacity="0.3" d="M139.305 65.244L156.785 100.659C157.886 102.891 160.015 104.438 162.483 104.796L201.569 110.474C207.775 111.375 210.253 119.004 205.763 123.382L177.48 150.948C175.698 152.683 174.884 155.192 175.304 157.645L186.598 198.978C186.895 204.344 178.473 208 171.003 204.544L136.044 186.163C133.842 185.006 131.205 185.006 129.004 186.163L94.0442 204.544C88.4942 207.462 82.0071 202.747 83.067 196.567L89.7434 157.639C90.1633 155.187 89.3492 152.683 87.5674 150.943L59.2846 123.376C54.7943 118.999 57.2724 111.375 63.4778 110.469L102.564 104.791C105.027 104.432 107.157 102.886 108.262 100.654L125.251 66.227C127.37 61.9416 129.935 60.252 138.03 60.252C140.728 60.252 137.923 62.4228 139.31 65.2337L139.305 65.244Z" fill="black"/>
<path d="M92.0422 150.349C92.0524 150.421 90.9209 150.61 89.518 150.769C88.1151 150.928 86.9734 150.994 86.9631 150.922C86.9529 150.851 88.0844 150.661 89.4873 150.503C90.8902 150.344 92.0319 150.277 92.0422 150.349Z" fill="#FF861A"/>
<path d="M92.8359 153.656C92.8461 153.728 92.2266 153.861 91.4637 153.943C90.6957 154.03 90.066 154.04 90.0609 153.969C90.0506 153.897 90.6701 153.764 91.433 153.682C92.201 153.595 92.8308 153.585 92.8359 153.656Z" fill="#FF861A"/>
<path d="M89.5949 147.497C89.6051 147.568 88.361 147.768 86.8199 147.942C85.2787 148.116 84.0192 148.198 84.0141 148.121C84.0039 148.05 85.248 147.85 86.7943 147.676C88.3354 147.502 89.5949 147.42 89.6 147.497H89.5949Z" fill="#FF861A"/>
<path d="M86.8556 144.768C86.8659 144.84 85.6217 145.04 84.0806 145.214C82.5395 145.388 81.28 145.47 81.2748 145.393C81.2646 145.321 82.5088 145.121 84.055 144.947C85.5961 144.773 86.8556 144.691 86.8608 144.768H86.8556Z" fill="#FF861A"/>
<path d="M84.1165 142.04C84.1267 142.111 82.8826 142.311 81.3415 142.485C79.8003 142.659 78.5408 142.741 78.5357 142.664C78.5255 142.593 79.7696 142.393 81.3159 142.219C82.857 142.045 84.1165 141.963 84.1216 142.04H84.1165Z" fill="#FF861A"/>
<path d="M81.3773 139.311C81.3876 139.382 80.1434 139.582 78.6023 139.756C77.0612 139.93 75.8016 140.012 75.7965 139.935C75.7863 139.864 77.0304 139.664 78.5767 139.49C80.1178 139.316 81.3773 139.234 81.3824 139.311H81.3773Z" fill="#FF861A"/>
<path d="M78.6381 136.581C78.6483 136.653 77.4041 136.852 75.863 137.027C74.3219 137.201 73.0624 137.283 73.0573 137.206C73.047 137.134 74.2912 136.934 75.8374 136.76C77.3785 136.586 78.6381 136.504 78.6432 136.581H78.6381Z" fill="#FF861A"/>
<path d="M75.899 133.857C75.9092 133.929 74.6651 134.128 73.1239 134.302C71.5828 134.477 70.3233 134.558 70.3182 134.482C70.3079 134.41 71.5521 134.21 73.0983 134.036C74.6395 133.862 75.899 133.78 75.9041 133.857H75.899Z" fill="#FF861A"/>
<path d="M73.1597 131.128C73.1699 131.2 71.9257 131.399 70.3846 131.573C68.8435 131.748 67.584 131.829 67.5789 131.753C67.5686 131.681 68.8128 131.481 70.359 131.307C71.9001 131.133 73.1597 131.051 73.1648 131.128H73.1597Z" fill="#FF861A"/>
<path d="M70.4205 128.399C70.4307 128.471 69.1865 128.671 67.6454 128.845C66.1043 129.019 64.8448 129.101 64.8397 129.024C64.8294 128.952 66.0736 128.753 67.6198 128.579C69.1609 128.405 70.4205 128.323 70.4256 128.399H70.4205Z" fill="#FF861A"/>
<path d="M62.3718 116.537C62.3718 116.608 61.2147 116.721 59.776 116.777C58.3373 116.839 57.175 116.829 57.1699 116.752C57.1699 116.68 58.327 116.567 59.7658 116.511C61.1994 116.45 62.3667 116.46 62.3718 116.537Z" fill="#FF861A"/>
<path d="M63.2166 113.629C63.2166 113.7 62.1209 113.736 60.7693 113.7C59.4176 113.664 58.327 113.577 58.327 113.506C58.327 113.434 59.4227 113.398 60.7744 113.434C62.1261 113.47 63.2166 113.557 63.2166 113.629Z" fill="#FF861A"/>
<path d="M65.879 110.884C65.879 110.956 65.0137 111.033 63.9385 111.058C62.8685 111.079 61.9929 111.038 61.9981 110.961C61.9929 110.889 62.8634 110.812 63.9334 110.792C65.0035 110.771 65.8739 110.812 65.879 110.884Z" fill="#FF861A"/>
<path d="M67.6813 125.67C67.6915 125.742 66.4473 125.942 64.9062 126.116C63.3651 126.29 62.1056 126.372 62.1005 126.295C62.0902 126.223 63.3344 126.024 64.8806 125.85C66.4217 125.676 67.6813 125.594 67.6864 125.67H67.6813Z" fill="#FF861A"/>
<path d="M65.2493 122.732C65.2596 122.803 64.0154 123.003 62.4743 123.177C60.9332 123.351 59.6736 123.433 59.6685 123.356C59.6583 123.284 60.9024 123.085 62.4487 122.911C63.9898 122.737 65.2493 122.655 65.2544 122.732H65.2493Z" fill="#FF861A"/>
<path d="M62.9555 119.824C62.9658 119.896 61.7267 120.095 60.1907 120.27C58.6547 120.444 57.4054 120.52 57.3952 120.449C57.385 120.377 58.624 120.177 60.16 120.003C61.696 119.829 62.9453 119.752 62.9504 119.824H62.9555Z" fill="#FF861A"/>
<path d="M174.07 200.965C174.101 201.031 173.092 201.569 171.812 202.168C170.532 202.767 169.472 203.197 169.441 203.131C169.411 203.064 170.419 202.526 171.699 201.927C172.979 201.328 174.039 200.898 174.07 200.965Z" fill="#FF861A"/>
<path d="M175.882 203.848C175.913 203.914 175.37 204.232 174.674 204.559C173.972 204.887 173.384 205.097 173.353 205.03C173.322 204.964 173.865 204.646 174.561 204.319C175.258 203.991 175.851 203.781 175.882 203.848Z" fill="#FF861A"/>
<path d="M170.839 199.051C170.87 199.117 169.759 199.706 168.351 200.361C166.943 201.022 165.78 201.498 165.75 201.431C165.719 201.365 166.83 200.776 168.238 200.121C169.641 199.46 170.808 198.984 170.839 199.051Z" fill="#FF861A"/>
<path d="M167.373 197.34C167.404 197.407 166.292 197.996 164.884 198.651C163.476 199.311 162.314 199.788 162.284 199.721C162.253 199.654 163.364 199.066 164.772 198.41C166.175 197.75 167.342 197.274 167.373 197.34Z" fill="#FF861A"/>
<path d="M163.901 195.635C163.932 195.702 162.821 196.29 161.413 196.946C160.005 197.606 158.843 198.082 158.812 198.016C158.781 197.949 159.892 197.361 161.3 196.705C162.703 196.045 163.871 195.569 163.901 195.635Z" fill="#FF861A"/>
<path d="M160.435 193.926C160.466 193.992 159.355 194.581 157.947 195.236C156.539 195.897 155.377 196.373 155.346 196.306C155.315 196.24 156.426 195.651 157.834 194.996C159.237 194.335 160.405 193.859 160.435 193.926Z" fill="#FF861A"/>
<path d="M156.964 192.22C156.995 192.287 155.883 192.875 154.475 193.531C153.067 194.191 151.905 194.667 151.875 194.601C151.844 194.534 152.955 193.946 154.363 193.29C155.766 192.63 156.933 192.154 156.964 192.22Z" fill="#FF861A"/>
<path d="M153.492 190.515C153.523 190.582 152.412 191.171 151.004 191.826C149.596 192.487 148.434 192.963 148.403 192.896C148.372 192.83 149.484 192.241 150.892 191.586C152.294 190.925 153.462 190.449 153.492 190.515Z" fill="#FF861A"/>
<path d="M150.026 188.806C150.057 188.872 148.946 189.461 147.538 190.116C146.13 190.777 144.968 191.253 144.937 191.186C144.906 191.12 146.017 190.531 147.425 189.876C148.828 189.215 149.996 188.739 150.026 188.806Z" fill="#FF861A"/>
<path d="M146.555 187.1C146.586 187.167 145.475 187.756 144.067 188.411C142.659 189.072 141.496 189.548 141.466 189.481C141.435 189.415 142.546 188.826 143.954 188.171C145.357 187.51 146.524 187.034 146.555 187.1Z" fill="#FF861A"/>
<path d="M143.089 185.395C143.119 185.462 142.008 186.051 140.6 186.706C139.192 187.367 138.03 187.843 137.999 187.776C137.969 187.71 139.08 187.121 140.488 186.465C141.891 185.805 143.058 185.329 143.089 185.395Z" fill="#FF861A"/>
<path d="M139.837 183.393C139.868 183.459 138.757 184.048 137.349 184.704C135.941 185.364 134.779 185.84 134.748 185.774C134.717 185.707 135.829 185.118 137.237 184.463C138.639 183.803 139.807 183.326 139.837 183.393Z" fill="#FF861A"/>
<path d="M135.578 181.913C135.608 181.98 135.066 182.303 134.364 182.63C133.663 182.958 133.069 183.173 133.033 183.106C133.002 183.04 133.545 182.717 134.246 182.39C134.948 182.062 135.542 181.847 135.578 181.913Z" fill="#FF861A"/>
<path d="M144.814 64.4815L162.294 99.8965C163.395 102.129 165.524 103.675 167.992 104.033L207.078 109.712C213.284 110.613 215.762 118.241 211.272 122.619L182.989 150.185C181.207 151.921 180.393 154.43 180.813 156.882L187.489 195.809C188.549 201.989 182.062 206.705 176.512 203.786L141.553 185.406C139.351 184.248 136.714 184.248 134.513 185.406L99.5533 203.786C94.0032 206.705 87.5162 201.989 88.576 195.809L95.2525 156.882C95.6723 154.43 94.8582 151.926 93.0765 150.185L64.7936 122.619C60.3034 118.241 62.7814 110.618 68.9869 109.712L108.073 104.033C110.536 103.675 112.666 102.129 113.772 99.8965L131.251 64.4815C134.026 58.8597 142.044 58.8597 144.819 64.4815H144.814Z" fill="#FF861A"/>
<g opacity="0.3">
<path d="M183.096 128.922C182.385 123.11 181.494 117.115 178.376 112.159C175.258 107.208 169.288 103.562 163.599 104.95C162.555 111.007 161.454 117.438 164.905 122.527C165.704 123.699 166.728 124.78 167.081 126.152C167.46 127.637 166.984 129.188 166.62 130.678C163.901 141.829 167.649 153.426 171.351 164.291C175.396 176.154 179.594 188.298 187.541 197.985C187.479 195.052 186.972 192.84 186.609 190.628C186.03 187.116 185.431 183.823 184.648 179.231C183.747 173.967 181.571 162.514 180.777 156.575C180.562 154.988 180.885 153.467 181.448 152.289C182.067 150.984 183.014 150.154 183.701 149.484C184.294 148.905 184.704 148.506 184.704 148.506C184.054 139.556 184.187 137.825 183.096 128.917V128.922Z" fill="black"/>
</g>
<path d="M111.99 102.037C111.923 102.067 111.396 101.048 110.812 99.7633C110.228 98.4782 109.809 97.4132 109.875 97.3825C109.942 97.3518 110.469 98.3707 111.053 99.6558C111.636 100.941 112.056 102.006 111.99 102.037Z" fill="#FF861A"/>
<path d="M109.087 103.813C109.02 103.844 108.708 103.296 108.39 102.594C108.073 101.893 107.868 101.299 107.935 101.268C108.001 101.238 108.314 101.785 108.631 102.487C108.948 103.188 109.153 103.782 109.087 103.813Z" fill="#FF861A"/>
<path d="M113.946 98.8311C113.879 98.8618 113.306 97.7405 112.666 96.3274C112.026 94.9143 111.56 93.7418 111.626 93.7111C111.693 93.6803 112.266 94.8016 112.906 96.2147C113.546 97.6279 114.012 98.8003 113.946 98.8311Z" fill="#FF861A"/>
<path d="M115.697 95.3809C115.63 95.4116 115.057 94.2903 114.417 92.8772C113.777 91.4641 113.311 90.2916 113.377 90.2609C113.444 90.2302 114.017 91.3514 114.657 92.7646C115.297 94.1777 115.763 95.3502 115.697 95.3809Z" fill="#FF861A"/>
<path d="M117.443 91.9346C117.376 91.9653 116.803 90.844 116.163 89.4309C115.523 88.0178 115.057 86.8453 115.123 86.8146C115.19 86.7839 115.763 87.9051 116.403 89.3183C117.043 90.7314 117.509 91.9039 117.443 91.9346Z" fill="#FF861A"/>
<path d="M119.194 88.4888C119.127 88.5195 118.554 87.3982 117.914 85.9851C117.274 84.572 116.808 83.3995 116.874 83.3688C116.941 83.3381 117.514 84.4593 118.154 85.8725C118.794 87.2856 119.26 88.4581 119.194 88.4888Z" fill="#FF861A"/>
<path d="M120.945 85.0381C120.878 85.0688 120.305 83.9475 119.665 82.5344C119.025 81.1213 118.559 79.9488 118.625 79.9181C118.692 79.8874 119.265 81.0087 119.905 82.4218C120.545 83.8349 121.011 85.0074 120.945 85.0381Z" fill="#FF861A"/>
<path d="M122.691 81.5923C122.624 81.623 122.051 80.5017 121.411 79.0886C120.771 77.6755 120.305 76.503 120.371 76.4723C120.438 76.4416 121.011 77.5629 121.651 78.976C122.291 80.3891 122.757 81.5616 122.691 81.5923Z" fill="#FF861A"/>
<path d="M124.442 78.1416C124.375 78.1723 123.802 77.0511 123.162 75.6379C122.522 74.2248 122.056 73.0523 122.122 73.0216C122.189 72.9909 122.762 74.1122 123.402 75.5253C124.042 76.9384 124.508 78.1109 124.442 78.1416Z" fill="#FF861A"/>
<path d="M126.188 74.6958C126.121 74.7265 125.548 73.6053 124.908 72.1921C124.268 70.779 123.802 69.6065 123.868 69.5758C123.935 69.5451 124.508 70.6664 125.148 72.0795C125.788 73.4926 126.254 74.6651 126.188 74.6958Z" fill="#FF861A"/>
<path d="M127.939 71.2451C127.872 71.2758 127.299 70.1546 126.659 68.7414C126.019 67.3283 125.553 66.1558 125.619 66.1251C125.686 66.0944 126.259 67.2157 126.899 68.6288C127.539 70.0419 128.005 71.2144 127.939 71.2451Z" fill="#FF861A"/>
<path d="M129.976 68.0244C129.91 68.0551 129.336 66.9339 128.696 65.5207C128.056 64.1076 127.59 62.9351 127.657 62.9044C127.723 62.8737 128.297 63.995 128.937 65.4081C129.577 66.8212 130.043 67.9937 129.976 68.0244Z" fill="#FF861A"/>
<path d="M131.512 63.7795C131.446 63.8102 131.133 63.2624 130.811 62.5558C130.488 61.8493 130.284 61.2502 130.35 61.2195C130.417 61.1888 130.729 61.7366 131.052 62.4432C131.374 63.1497 131.579 63.7488 131.512 63.7795Z" fill="#FF861A"/>
<path d="M132.997 66.806C133.064 66.8418 129.065 74.8341 124.068 84.6543C119.071 94.4796 114.965 102.421 114.898 102.385C114.831 102.349 118.83 94.3618 123.827 84.5314C128.824 74.7062 132.931 66.7702 132.992 66.8009L132.997 66.806Z" fill="white"/>
<path d="M106.511 107.587C106.511 107.587 106.363 107.622 106.081 107.663C105.774 107.704 105.359 107.755 104.837 107.827C103.731 107.96 102.17 108.145 100.255 108.375C96.3584 108.81 91.0182 109.414 85.12 110.075C82.1657 110.397 79.3497 110.699 76.7846 110.981C75.5046 111.119 74.2861 111.237 73.1648 111.452C72.0435 111.662 71.0246 111.964 70.1491 112.379C68.3981 113.213 67.3433 114.478 66.8774 115.441C66.4013 116.419 66.4064 117.048 66.3705 117.038C66.3705 117.038 66.3705 117.002 66.3705 116.925C66.3757 116.854 66.3808 116.741 66.4064 116.598C66.4576 116.316 66.5549 115.896 66.7853 115.395C67.2307 114.396 68.2905 113.08 70.0723 112.205C70.9581 111.77 71.9923 111.447 73.1238 111.227C74.2553 111.002 75.479 110.874 76.759 110.73C79.3241 110.443 82.1401 110.131 85.0944 109.803C90.9977 109.169 96.3379 108.6 100.239 108.18C102.159 107.986 103.721 107.832 104.832 107.72C105.354 107.674 105.774 107.638 106.081 107.607C106.368 107.587 106.516 107.576 106.522 107.587H106.511Z" fill="white"/>
<path d="M172.718 199.726C172.682 199.793 167.695 197.043 161.577 193.587C155.459 190.131 150.533 187.279 150.569 187.218C150.605 187.151 155.592 189.901 161.71 193.357C167.823 196.808 172.754 199.66 172.718 199.726Z" fill="white"/>
<path d="M143.493 183.312C143.468 183.368 142.561 182.81 140.923 182.487C139.295 182.144 136.929 182.17 134.487 182.902C132.04 183.634 129.997 184.761 128.532 185.57C127.836 185.964 127.252 186.292 126.802 186.548C126.392 186.778 126.162 186.896 126.152 186.88C126.141 186.865 126.356 186.717 126.751 186.455C127.145 186.199 127.718 185.836 128.44 185.401C129.884 184.546 131.932 183.383 134.415 182.641C136.899 181.899 139.315 181.904 140.964 182.298C141.793 182.487 142.433 182.733 142.858 182.943C143.073 183.04 143.232 183.138 143.339 183.199C143.447 183.261 143.498 183.296 143.498 183.307L143.493 183.312Z" fill="white"/>
<path d="M58.9312 143.104H15.3856V166.118H47.4163C48.3635 167.578 50.3654 170.885 50.3654 170.885L52.6694 166.118H58.9363V143.104H58.9312Z" fill="#FAFAFA"/>
<path d="M58.9312 143.104C58.9312 143.104 58.9363 143.237 58.9414 143.503C58.9414 143.78 58.9465 144.174 58.9516 144.686C58.9568 145.741 58.967 147.282 58.9772 149.263C58.9875 153.257 59.008 159.022 59.0284 166.118V166.216H58.9312C56.9497 166.216 54.8556 166.221 52.6643 166.226L52.7616 166.165C52.0396 167.66 51.2665 169.272 50.4627 170.931L50.3705 171.121L50.2579 170.942C49.3312 169.446 48.3328 167.834 47.3088 166.18L47.4112 166.236C38.6099 166.236 28.6822 166.246 18.2067 166.246C17.2595 166.246 16.3174 166.246 15.3804 166.246H15.2473V166.113C15.2473 157.988 15.2524 150.231 15.2576 143.099V142.976H15.3804C28.1548 142.997 39.0451 143.012 46.7507 143.027C50.5958 143.043 53.6422 143.058 55.7363 143.068C56.7705 143.073 57.5641 143.084 58.112 143.084C58.3731 143.084 58.5728 143.089 58.7212 143.089C58.8544 143.089 58.9209 143.094 58.9209 143.094C58.9209 143.094 58.8441 143.094 58.7059 143.099C58.5574 143.099 58.3526 143.099 58.0864 143.104C57.5334 143.104 56.7296 143.114 55.6902 143.119C53.5961 143.13 50.5548 143.145 46.7148 143.16C39.0195 143.171 28.1395 143.191 15.3804 143.212L15.5033 143.089C15.5033 150.216 15.5084 157.978 15.5136 166.103L15.3804 165.97C16.3174 165.97 17.2595 165.97 18.2067 165.97C28.6771 165.97 38.6099 165.98 47.4112 165.98H47.4777L47.5136 166.037C48.5376 167.695 49.536 169.313 50.4576 170.808L50.2579 170.819C51.0617 169.16 51.8451 167.547 52.567 166.057L52.5977 165.996H52.6643C54.8556 165.996 56.9446 166.001 58.9312 166.006L58.8339 166.103C58.8544 159.027 58.8748 153.288 58.8851 149.31C58.8953 147.323 58.9056 145.772 58.9107 144.712C58.9107 144.19 58.9209 143.79 58.9209 143.509C58.9209 143.237 58.9312 143.094 58.9312 143.094V143.104Z" fill="#263238"/>
<path d="M25.5642 154.435C26.2759 154.143 26.7828 153.416 26.793 152.561C26.8084 151.434 25.9636 150.508 24.9037 150.497C23.849 150.482 22.9786 151.383 22.9632 152.509C22.953 153.38 23.4548 154.122 24.1664 154.424C21.2173 154.844 21.3248 158.044 21.3248 158.044L28.2829 158.136C28.2829 158.136 28.4672 154.906 25.554 154.44L25.5642 154.435Z" fill="#FF861A"/>
<path d="M52.8589 151.183C52.8589 151.229 48.4198 151.265 42.9466 151.265C37.4733 151.265 33.0342 151.229 33.0342 151.183C33.0342 151.137 37.4733 151.101 42.9466 151.101C48.4198 151.101 52.8589 151.137 52.8589 151.183Z" fill="#263238"/>
<path d="M52.8589 153.554C52.8589 153.6 48.4198 153.636 42.9466 153.636C37.4733 153.636 33.0342 153.6 33.0342 153.554C33.0342 153.508 37.4733 153.472 42.9466 153.472C48.4198 153.472 52.8589 153.508 52.8589 153.554Z" fill="#263238"/>
<path d="M52.8589 155.93C52.8589 155.976 48.4198 156.011 42.9466 156.011C37.4733 156.011 33.0342 155.976 33.0342 155.93C33.0342 155.883 37.4733 155.848 42.9466 155.848C48.4198 155.848 52.8589 155.883 52.8589 155.93Z" fill="#263238"/>
<path d="M44.887 158.93C44.887 158.976 42.2349 159.012 38.9581 159.012C35.6813 159.012 33.0291 158.976 33.0291 158.93C33.0291 158.884 35.6813 158.848 38.9581 158.848C42.2349 158.848 44.887 158.884 44.887 158.93Z" fill="#263238"/>
<path d="M204.119 214.369L198.226 223.206C198.226 223.206 205.23 232.166 204.298 233.901L186.757 223.088L195.374 208.941L204.119 214.363V214.369Z" fill="#FF861A"/>
<g opacity="0.3">
<path d="M204.119 214.369L198.226 223.206C198.226 223.206 205.23 232.166 204.298 233.901L186.757 223.088L195.374 208.941L204.119 214.363V214.369Z" fill="black"/>
</g>
<path d="M193.27 219.1C192.876 218.982 192.405 219.223 192.271 219.612C192.138 220.001 192.374 220.482 192.768 220.605C193.162 220.728 193.736 220.462 193.823 220.057C193.91 219.653 193.603 219.105 193.188 219.079" fill="#E0E0E0"/>
<g opacity="0.6">
<path d="M186.752 223.088L187.679 221.696L204.155 232.581C204.155 232.581 204.728 233.4 204.298 233.897L186.757 223.083L186.752 223.088Z" fill="white"/>
</g>
<path d="M198.564 223.289C198.508 223.371 198.057 223.146 197.463 223.161C196.869 223.161 196.424 223.397 196.367 223.315C196.301 223.248 196.741 222.818 197.458 222.808C198.175 222.798 198.63 223.217 198.564 223.284V223.289Z" fill="#263238"/>
<path d="M199.936 225.187C199.905 225.285 199.444 225.198 198.927 225.382C198.41 225.551 198.093 225.894 198.011 225.838C197.924 225.802 198.17 225.264 198.815 225.049C199.455 224.829 199.982 225.1 199.936 225.187Z" fill="#263238"/>
<path d="M199.624 228.035C199.537 228.004 199.68 227.502 200.187 227.169C200.694 226.831 201.211 226.898 201.206 226.99C201.206 227.092 200.796 227.18 200.381 227.461C199.962 227.732 199.716 228.076 199.624 228.035Z" fill="#263238"/>
<path d="M199.685 221.128C199.603 221.184 199.281 220.825 198.779 220.559C198.282 220.283 197.801 220.216 197.806 220.114C197.796 220.022 198.359 219.929 198.948 220.252C199.542 220.569 199.772 221.087 199.69 221.133L199.685 221.128Z" fill="#263238"/>
<path d="M200.837 219.325C200.817 219.361 200.443 219.208 199.962 218.777C199.721 218.562 199.46 218.281 199.214 217.928C199.091 217.753 198.979 217.559 198.876 217.349C198.825 217.247 198.763 217.134 198.738 216.98C198.697 216.832 198.784 216.571 198.979 216.499C199.153 216.417 199.347 216.458 199.475 216.535C199.608 216.612 199.695 216.699 199.777 216.786C199.941 216.955 200.084 217.129 200.207 217.308C200.448 217.666 200.602 218.03 200.689 218.337C200.863 218.967 200.806 219.371 200.765 219.371C200.709 219.371 200.678 218.987 200.453 218.419C200.34 218.137 200.177 217.815 199.941 217.492C199.823 217.334 199.685 217.175 199.531 217.026C199.378 216.863 199.219 216.765 199.122 216.816C199.086 216.837 199.076 216.847 199.081 216.929C199.091 217.006 199.137 217.098 199.183 217.2C199.275 217.395 199.378 217.579 199.485 217.753C199.695 218.096 199.926 218.378 200.136 218.603C200.55 219.054 200.868 219.279 200.837 219.325Z" fill="#263238"/>
<path d="M200.653 219.377C200.617 219.372 200.632 218.962 200.945 218.384C201.098 218.097 201.334 217.785 201.656 217.498C201.82 217.355 202.004 217.222 202.209 217.104C202.419 216.996 202.685 216.838 203.044 217.007C203.223 217.109 203.284 217.329 203.259 217.478C203.243 217.631 203.192 217.739 203.151 217.857C203.059 218.082 202.931 218.281 202.788 218.45C202.501 218.788 202.158 219.009 201.851 219.126C201.226 219.372 200.806 219.249 200.817 219.218C200.817 219.157 201.216 219.177 201.748 218.901C202.01 218.768 202.301 218.553 202.537 218.246C202.655 218.092 202.757 217.918 202.834 217.729C202.921 217.524 202.947 217.329 202.865 217.309C202.778 217.252 202.542 217.304 202.378 217.406C202.189 217.508 202.02 217.626 201.866 217.749C201.559 218 201.324 218.271 201.155 218.522C200.812 219.024 200.709 219.398 200.653 219.382V219.377Z" fill="#263238"/>
<path d="M202.496 216.233L204.411 226.678C204.411 226.678 215.675 228.24 216.218 230.134L196.096 234.578L192.44 218.425L202.496 216.233Z" fill="#FF861A"/>
<path d="M197.995 227.179C197.632 227.374 197.458 227.871 197.632 228.244C197.811 228.618 198.313 228.797 198.682 228.613C199.05 228.429 199.275 227.835 199.06 227.487C198.845 227.138 198.241 226.954 197.924 227.225" fill="#E0E0E0"/>
<g opacity="0.6">
<path d="M196.096 234.578L195.794 232.935L215.204 229.289C215.204 229.289 216.187 229.484 216.223 230.134L196.101 234.578H196.096Z" fill="white"/>
</g>
<path d="M204.713 226.504C204.733 226.601 204.252 226.755 203.837 227.18C203.412 227.589 203.259 228.07 203.156 228.055C203.059 228.055 203.08 227.436 203.587 226.934C204.093 226.427 204.713 226.412 204.708 226.509L204.713 226.504Z" fill="#263238"/>
<path d="M207.017 226.913C207.058 227.005 206.674 227.266 206.428 227.753C206.172 228.234 206.188 228.705 206.09 228.721C206.003 228.756 205.809 228.198 206.121 227.594C206.428 226.99 206.996 226.821 207.022 226.913H207.017Z" fill="#263238"/>
<path d="M208.773 229.172C208.686 229.213 208.445 228.752 208.579 228.158C208.707 227.564 209.126 227.247 209.183 227.323C209.254 227.39 209.024 227.748 208.922 228.235C208.809 228.721 208.87 229.141 208.778 229.172H208.773Z" fill="#263238"/>
<path d="M204.017 224.174C203.996 224.272 203.515 224.236 202.967 224.4C202.419 224.548 202.025 224.83 201.958 224.758C201.887 224.702 202.23 224.241 202.875 224.062C203.52 223.877 204.052 224.087 204.017 224.174Z" fill="#263238"/>
<path d="M203.587 222.07C203.597 222.111 203.223 222.254 202.578 222.285C202.255 222.3 201.871 222.28 201.452 222.193C201.242 222.152 201.027 222.09 200.806 222.013C200.699 221.973 200.576 221.937 200.448 221.845C200.315 221.768 200.197 221.517 200.289 221.333C200.356 221.153 200.525 221.046 200.668 221.015C200.817 220.979 200.945 220.979 201.057 220.984C201.293 220.984 201.518 221.015 201.733 221.061C202.158 221.153 202.517 221.302 202.798 221.466C203.361 221.793 203.602 222.126 203.571 222.152C203.535 222.193 203.238 221.937 202.685 221.686C202.409 221.563 202.066 221.445 201.677 221.379C201.482 221.348 201.272 221.327 201.057 221.327C200.832 221.317 200.648 221.358 200.617 221.466C200.607 221.507 200.607 221.522 200.663 221.573C200.719 221.619 200.822 221.66 200.924 221.696C201.129 221.773 201.329 221.834 201.523 221.88C201.912 221.978 202.276 222.024 202.578 222.039C203.192 222.075 203.576 222.013 203.587 222.07Z" fill="#263238"/>
<path d="M203.494 222.239C203.464 222.259 203.192 221.952 203.013 221.322C202.926 221.01 202.875 220.621 202.906 220.191C202.921 219.976 202.962 219.75 203.029 219.52C203.1 219.295 203.187 218.998 203.561 218.87C203.761 218.819 203.96 218.936 204.042 219.059C204.14 219.182 204.175 219.295 204.227 219.407C204.314 219.633 204.36 219.868 204.375 220.088C204.406 220.529 204.309 220.928 204.175 221.225C203.899 221.834 203.515 222.039 203.5 222.008C203.453 221.967 203.756 221.701 203.945 221.133C204.037 220.851 204.099 220.498 204.053 220.114C204.032 219.924 203.986 219.725 203.904 219.535C203.827 219.33 203.709 219.172 203.633 219.213C203.53 219.233 203.397 219.433 203.351 219.622C203.29 219.827 203.249 220.027 203.223 220.221C203.177 220.61 203.197 220.974 203.249 221.271C203.351 221.87 203.535 222.213 203.489 222.239H203.494Z" fill="#263238"/>
<path d="M198.497 129.173L222.986 166.958C225.316 170.379 226.647 173.896 226.299 177.956C226.074 180.567 225.116 183.056 223.677 185.247L203.694 220.16L193.736 209.966L208.451 178.873L194.412 159.965L186.957 129.173H198.492H198.497Z" fill="#263238"/>
<path d="M205.558 223.596L193.229 138.348L192.543 129.7L171.448 128.559C171.448 128.559 168.043 139.485 167.757 145.142C167.475 150.8 180.311 180.87 180.311 180.87L183.27 195.912L191.831 226.427L205.558 223.596Z" fill="#263238"/>
<path d="M169.825 126.802C169.451 126.183 172.344 123.746 177.003 119.952C178.171 119 179.446 117.955 180.813 116.834C182.226 115.707 183.895 114.366 186.209 113.485C188.503 112.625 191.145 112.395 193.766 112.984C195.072 113.275 196.367 113.772 197.591 114.514C198.81 115.257 199.982 116.281 200.863 117.638C201.073 117.965 201.298 118.339 201.503 118.841C201.702 119.332 201.871 119.977 201.846 120.725C201.805 121.565 201.549 122.317 201.006 123.019C200.73 123.367 200.361 123.705 199.89 123.956C199.659 124.084 199.398 124.181 199.137 124.253C198.886 124.314 198.641 124.36 198.39 124.365C197.335 124.406 196.618 124.012 196.224 123.797C195.809 123.556 195.584 123.387 195.461 123.316C195.41 123.28 195.379 123.264 195.415 123.28C195.446 123.29 195.507 123.311 195.548 123.311C195.635 123.321 195.64 123.305 195.553 123.311C195.379 123.321 194.944 123.454 194.324 123.633C194.012 123.725 193.628 123.797 193.28 123.864C192.932 123.91 192.578 123.961 192.246 123.971C190.899 124.048 189.747 123.884 188.738 123.751C187.73 123.608 186.859 123.485 186.107 123.459C185.349 123.428 184.755 123.51 184.074 123.689C182.738 124.068 181.391 124.857 180.091 125.609C178.806 126.367 177.464 127.12 176.205 127.56C174.95 128.016 173.757 128.216 172.779 128.19C171.802 128.169 171.054 127.924 170.609 127.663C170.163 127.401 169.994 127.151 170.045 126.987C170.168 126.618 171.115 126.705 172.518 126.203C173.22 125.958 174.044 125.563 174.955 124.969C175.882 124.386 176.824 123.597 178.017 122.619C179.215 121.672 180.613 120.515 182.641 119.67C183.639 119.261 184.873 118.979 186.02 118.938C187.167 118.877 188.247 118.969 189.23 119.035C190.213 119.107 191.119 119.158 191.867 119.071C192.061 119.056 192.23 119.02 192.404 118.989C192.573 118.943 192.717 118.918 192.911 118.851C193.321 118.728 193.899 118.477 194.811 118.324C195.266 118.252 195.825 118.211 196.454 118.324C196.762 118.38 197.094 118.472 197.376 118.59C197.668 118.708 197.883 118.831 198.067 118.938C198.42 119.148 198.651 119.307 198.722 119.337C198.733 119.343 198.743 119.348 198.738 119.348C198.738 119.348 198.743 119.332 198.712 119.399L198.589 119.66C198.472 119.88 198.374 120.167 198.328 120.29C198.272 120.484 198.246 120.551 198.231 120.669C198.216 120.725 198.216 120.807 198.216 120.807C198.216 120.822 198.216 120.832 198.216 120.807V120.792L198.21 120.786C198.18 120.669 198.251 120.94 198.241 120.909C198.241 120.904 198.241 120.894 198.221 120.863C198.195 120.812 198.129 120.73 198.047 120.669C197.97 120.607 197.893 120.571 197.873 120.566C197.862 120.566 197.867 120.566 197.883 120.566H197.919L197.944 120.576H197.96H197.965L197.642 120.561C197.565 120.561 197.422 120.561 197.212 120.607C197.11 120.628 196.982 120.658 196.843 120.704L196.731 120.74C196.705 120.751 196.726 120.74 196.715 120.74V120.73C196.7 120.699 196.634 120.571 196.531 120.413C195.784 119.225 194.207 118.278 192.584 117.868C190.955 117.443 189.235 117.504 187.745 117.95C186.255 118.385 184.781 119.307 183.322 120.259C181.837 121.237 180.393 122.143 179.072 122.916C173.762 126.029 170.173 127.376 169.815 126.777L169.825 126.802Z" fill="#F5F5F5"/>
<path d="M190.838 85.77C191.273 85.8468 195.476 87.6132 197.381 88.4222C197.985 88.6782 198.477 89.139 198.769 89.7278L208.138 108.636L200.888 113.654C200.888 113.654 201.738 128.425 199.875 129.172C199.178 129.449 173.85 129.408 173.85 129.408C173.85 129.408 171.11 130.375 170.132 129.408C169.375 128.66 169.667 127.201 169.667 127.201V96.3735L168.289 87.8846C168.289 87.8846 181.355 84.1009 190.833 85.7751L190.838 85.77Z" fill="#455A64"/>
<path d="M173.276 94.4435L173.681 109.778L160.614 111.027C160.614 110.94 159.201 91.1513 168.294 87.8745L173.276 94.4435Z" fill="#455A64"/>
<path d="M200.351 111.027C200.274 110.531 200.192 109.952 200.049 109.02C199.849 107.633 199.593 105.841 199.306 103.859C199.025 101.878 198.774 100.081 198.579 98.6931C198.497 98.0787 198.426 97.5565 198.364 97.1264C198.318 96.7578 198.298 96.5479 198.318 96.5479C198.338 96.5479 198.39 96.7424 198.472 97.111C198.554 97.4746 198.656 98.007 198.769 98.6624C199.004 99.9782 199.291 101.801 199.578 103.818C199.864 105.836 200.095 107.663 200.238 108.995C200.31 109.66 200.361 110.198 200.381 110.572C200.392 110.761 200.397 110.904 200.397 111.002V111.068C200.397 111.068 200.412 111.114 200.346 111.089V111.063C200.34 111.037 200.34 111.022 200.346 111.022L200.351 111.027Z" fill="#263238"/>
<g opacity="0.3">
<path d="M199.516 119.777C198.948 118.052 197.509 116.705 195.855 115.953C194.202 115.2 192.348 114.99 190.531 115.016C187.366 115.062 184.172 115.814 181.494 117.504C177.485 120.038 174.802 124.534 170.394 126.285L169.851 127.063C173.261 127.242 176.717 126.413 179.676 124.713C181.612 123.602 183.363 122.117 185.477 121.395C187.346 120.76 189.363 120.771 191.334 120.786C193.198 120.801 195.185 120.853 196.731 121.897C197.187 122.204 197.632 122.609 198.185 122.639C198.805 122.675 199.373 122.189 199.583 121.605C199.793 121.016 199.706 120.366 199.511 119.772L199.516 119.777Z" fill="black"/>
</g>
<path d="M193.848 109.153L195.415 105.196C195.574 104.796 195.958 104.535 196.388 104.535H203.822C204.344 104.535 204.708 105.052 204.523 105.544L199.757 118.477C199.7 118.631 199.557 118.733 199.393 118.733H190.592C190.315 118.733 190.131 118.456 190.234 118.2L193.848 109.159V109.153Z" fill="#263238"/>
<path d="M203.182 117.366L204.058 112.553L203.336 108.764L202.173 111.918V113.193C201.743 113.08 197.755 109.701 196.685 110.428C195.615 111.155 192.87 115.149 192.87 115.149C192.87 115.149 197.693 119.859 198.467 120.212C198.467 120.212 198.723 123.187 198.758 124.723C198.789 126.029 199.035 126.525 200.73 127.094C202.424 127.662 204.575 124.708 204.575 122.076C204.575 120.433 203.187 117.371 203.187 117.371L203.182 117.366Z" fill="#FFBE9D"/>
<path d="M172.14 110.07L172.559 115.128L184.74 110.674L190.162 108.165L192.532 108.759C192.532 108.759 199.987 109.245 200.059 109.722C200.125 110.198 200.463 110.602 200.059 110.669C199.654 110.735 193.756 111.007 193.756 111.007C193.756 111.007 200.115 111.411 200.259 111.887C200.402 112.363 200.197 113.106 199.859 113.106H192.947C192.947 113.106 199.455 113.51 199.521 113.782C199.588 114.053 200.064 114.529 199.455 114.729C198.845 114.934 192.881 115.133 192.881 115.133L198.508 116.152C198.508 116.152 198.712 117.033 198.236 117.033C197.76 117.033 185.492 117.847 185.492 117.847C185.492 117.847 171.121 127.012 168.407 127.677C165.647 128.353 163.323 125.204 162.99 122.987C162.488 119.644 162.022 110.94 162.022 110.94L172.15 110.054L172.14 110.07Z" fill="#FFBE9D"/>
<path d="M185.482 117.863C185.482 117.863 185.564 117.847 185.733 117.832C185.912 117.817 186.153 117.796 186.465 117.77C187.121 117.724 188.068 117.653 189.276 117.566C190.5 117.479 191.99 117.376 193.72 117.258C194.586 117.202 195.512 117.136 196.49 117.069C196.982 117.038 197.483 117.002 198.001 116.967C198.257 116.956 198.538 116.926 198.682 116.793C198.799 116.67 198.615 116.403 198.436 116.245L198.482 116.27C196.767 115.963 194.867 115.625 192.855 115.267C192.794 115.257 192.753 115.195 192.763 115.134C192.773 115.077 192.819 115.041 192.875 115.036C193.951 114.99 195.062 114.939 196.209 114.888C196.782 114.852 197.361 114.821 197.949 114.785C198.241 114.765 198.538 114.745 198.83 114.714C199.117 114.673 199.444 114.678 199.603 114.514C199.767 114.376 199.68 114.033 199.501 113.93C199.414 113.9 199.24 113.879 199.096 113.859L198.641 113.802C198.026 113.741 197.407 113.674 196.777 113.608C195.522 113.49 194.237 113.372 192.937 113.249C192.865 113.244 192.809 113.178 192.814 113.101C192.819 113.029 192.881 112.978 192.947 112.978C194.324 112.978 195.722 112.978 197.14 112.978C197.852 112.978 198.564 112.978 199.286 112.978H199.828C199.921 112.993 200.028 112.865 200.095 112.727C200.233 112.441 200.218 112.072 199.956 111.934C199.782 111.852 199.47 111.816 199.224 111.775L198.436 111.662C197.908 111.601 197.381 111.534 196.859 111.473C195.809 111.365 194.775 111.258 193.751 111.15C193.674 111.145 193.623 111.079 193.628 111.002C193.633 110.935 193.69 110.884 193.756 110.879C195.118 110.812 196.454 110.751 197.77 110.684C198.426 110.649 199.076 110.608 199.721 110.572C199.874 110.556 200.064 110.556 200.13 110.51C200.212 110.459 200.248 110.341 200.233 110.213C200.218 110.085 200.151 109.968 200.059 109.881C199.962 109.793 199.839 109.773 199.68 109.732C198.461 109.481 197.222 109.363 196.029 109.22C194.831 109.092 193.664 108.974 192.532 108.872H192.512C191.703 108.662 190.909 108.462 190.141 108.268H190.218C188.267 109.153 186.455 109.988 184.791 110.756H184.786C181.028 112.113 177.981 113.214 175.862 113.977C174.817 114.345 173.998 114.637 173.43 114.837C173.158 114.929 172.948 115.001 172.795 115.052C172.651 115.098 172.575 115.123 172.575 115.118C172.575 115.118 172.646 115.082 172.785 115.026C172.938 114.965 173.143 114.888 173.409 114.78C173.972 114.565 174.786 114.263 175.821 113.869C177.935 113.086 180.971 111.959 184.714 110.572H184.709C186.373 109.799 188.18 108.959 190.126 108.053C190.152 108.042 190.177 108.037 190.203 108.048C190.976 108.242 191.764 108.437 192.578 108.641H192.558C193.695 108.739 194.862 108.846 196.065 108.974C197.263 109.113 198.492 109.22 199.752 109.481C199.895 109.517 200.1 109.558 200.243 109.686C200.386 109.814 200.479 109.988 200.504 110.177C200.53 110.362 200.479 110.602 200.279 110.73C200.059 110.843 199.91 110.802 199.746 110.828C199.101 110.864 198.451 110.905 197.791 110.94C196.475 111.007 195.138 111.073 193.777 111.14V110.869C194.811 110.976 195.85 111.079 196.9 111.191C197.422 111.253 197.949 111.319 198.482 111.381L199.281 111.493C199.557 111.55 199.793 111.55 200.11 111.688C200.305 111.795 200.438 112.016 200.463 112.231C200.489 112.446 200.443 112.65 200.356 112.835C200.31 112.927 200.258 113.019 200.177 113.096C200.136 113.137 200.095 113.173 200.033 113.203C199.992 113.234 199.869 113.249 199.844 113.244H199.301C198.579 113.244 197.867 113.244 197.156 113.244C195.738 113.244 194.335 113.244 192.962 113.244L192.973 112.978C194.278 113.101 195.558 113.224 196.818 113.342C197.448 113.408 198.067 113.475 198.682 113.541L199.142 113.598C199.301 113.628 199.434 113.623 199.634 113.695C199.818 113.808 199.905 113.971 199.946 114.151C199.987 114.325 199.941 114.55 199.798 114.683C199.659 114.821 199.485 114.867 199.322 114.898C199.168 114.919 199.014 114.939 198.866 114.954C198.564 114.985 198.272 115.006 197.975 115.026C197.386 115.062 196.802 115.093 196.229 115.123C195.082 115.169 193.971 115.216 192.891 115.257L192.906 115.026C194.918 115.395 196.818 115.743 198.528 116.055C198.528 116.055 198.564 116.065 198.574 116.081C198.687 116.183 198.774 116.291 198.85 116.424C198.922 116.547 198.968 116.767 198.835 116.91C198.574 117.141 198.277 117.125 198.026 117.146C197.509 117.177 197.002 117.207 196.511 117.238C195.528 117.294 194.606 117.351 193.736 117.402C192.005 117.504 190.515 117.591 189.286 117.663C188.078 117.729 187.131 117.781 186.47 117.817C186.158 117.832 185.917 117.842 185.738 117.847C185.574 117.852 185.487 117.852 185.487 117.847L185.482 117.863Z" fill="#EB996E"/>
<path d="M168.694 120.883C168.663 120.883 168.663 120.468 168.786 119.818C168.914 119.173 169.19 118.277 169.759 117.421C170.327 116.566 171.049 115.967 171.602 115.609C172.16 115.251 172.544 115.102 172.559 115.133C172.626 115.22 171.09 115.932 169.989 117.575C169.446 118.394 169.149 119.244 168.975 119.864C168.806 120.488 168.74 120.888 168.694 120.883Z" fill="#EB996E"/>
<path d="M199.997 107.811C200.12 108.114 199.951 108.467 199.624 108.6C199.296 108.733 198.927 108.6 198.804 108.303C198.682 108.001 198.85 107.648 199.178 107.515C199.506 107.381 199.875 107.515 199.997 107.811Z" fill="#FAFAFA"/>
<path d="M201.436 112.717C201.436 112.717 201.503 112.445 201.667 111.969C201.851 111.452 202.097 110.781 202.388 109.967C202.706 109.112 203.08 108.114 203.489 107.008C203.592 106.731 203.699 106.445 203.812 106.153C203.899 105.876 204.104 105.523 204.022 105.339C203.986 105.262 203.868 105.221 203.715 105.231C203.551 105.231 203.382 105.231 203.218 105.231C202.885 105.231 202.547 105.231 202.204 105.231C200.832 105.231 199.526 105.226 198.333 105.221C197.739 105.221 197.176 105.216 196.644 105.211C196.383 105.185 196.183 105.272 196.065 105.451C195.968 105.636 195.881 105.887 195.794 106.081C195.461 106.88 195.185 107.54 194.97 108.047C194.77 108.508 194.652 108.759 194.637 108.754C194.621 108.749 194.708 108.483 194.877 108.011C195.072 107.499 195.323 106.824 195.625 106.015C195.712 105.8 195.768 105.595 195.896 105.344C195.973 105.226 196.086 105.124 196.219 105.062C196.352 104.996 196.521 104.996 196.644 104.996C197.176 104.996 197.739 104.986 198.328 104.986C199.521 104.986 200.827 104.98 202.194 104.975C202.537 104.975 202.875 104.975 203.208 104.975C203.377 104.975 203.54 104.975 203.704 104.975C203.863 104.965 204.134 104.996 204.247 105.226C204.344 105.446 204.262 105.641 204.211 105.784C204.155 105.933 204.099 106.081 204.042 106.225C203.93 106.516 203.822 106.798 203.715 107.075C203.284 108.17 202.895 109.169 202.563 110.019C202.24 110.822 201.969 111.488 201.764 111.995C201.569 112.461 201.457 112.712 201.441 112.707L201.436 112.717Z" fill="#455A64"/>
<path d="M180.04 56.5551C178.796 55.7666 178.493 53.9336 179.169 52.6229C179.845 51.3122 181.274 50.5135 182.733 50.2831C184.842 49.9451 187.095 50.6875 188.58 52.2184C189.384 53.0479 190.034 54.1231 191.124 54.5019C192.082 54.8347 193.142 54.5327 194.145 54.6658C195.492 54.8399 196.649 55.7973 197.34 56.9698C198.031 58.1423 198.318 59.5042 198.477 60.8559C198.625 62.0949 198.723 63.4517 199.578 64.3579C200.417 65.2386 201.738 65.428 202.783 66.0527C204.744 67.2303 205.379 70.1538 204.083 72.0431C203.668 72.6472 203.08 73.1951 203.028 73.9272C202.982 74.5928 203.412 75.1816 203.617 75.8165C204.134 77.4498 202.798 79.3954 201.083 79.4927C200.218 79.5439 199.291 79.2059 198.518 79.5899C197.75 79.9739 197.463 80.9007 196.972 81.6072C196.004 82.9947 193.976 83.517 192.456 82.7746C191.821 82.4623 191.222 81.9503 190.515 81.9963C189.809 82.0424 189.256 82.6466 188.559 82.7797C187.653 82.9538 186.788 82.2882 186.25 81.5355C185.713 80.7829 185.334 79.8971 184.643 79.2827C183.736 78.4789 182.467 78.2792 181.32 77.885C178.79 77.0146 176.681 75.0075 175.677 72.5295C174.679 70.0514 174.807 67.1381 176.026 64.7573" fill="#263238"/>
<path d="M193.208 72.8316C193.464 72.5551 193.838 72.294 194.217 72.166H194.14C194.212 72.1404 194.284 72.1353 194.355 72.1251C194.632 72.0585 194.908 72.0739 195.144 72.2223H195.139C195.569 72.3811 195.953 72.6985 196.163 73.1132C196.526 73.8351 196.393 74.7516 195.901 75.3916C195.476 75.9497 194.744 76.3132 194.063 76.1494C193.439 75.9958 192.973 75.4326 192.799 74.8131C192.604 74.1372 192.727 73.3487 193.208 72.8316Z" fill="#455A64"/>
<path d="M176.783 86.0726L175.462 61.7884C175.411 60.7183 176.184 59.7865 177.249 59.6482L188.109 56.5711C191.601 56.1001 194.053 60.3497 194.371 63.8569C194.729 67.7532 195.011 72.5302 194.632 75.4537C193.869 81.3366 189.399 82.2121 189.399 82.2121C189.443 84.4478 189.466 85.5657 189.466 85.5657L189.112 94.6946L176.794 86.0726H176.783Z" fill="#FFBE9D"/>
<path d="M192.85 68.9464C192.875 69.3406 192.558 69.6888 192.148 69.7246C191.734 69.7605 191.38 69.4635 191.355 69.0693C191.329 68.675 191.647 68.3217 192.056 68.291C192.471 68.2552 192.824 68.5521 192.85 68.9464Z" fill="#263238"/>
<path d="M193.398 66.3703C193.306 66.4727 192.727 66.0682 191.918 66.0887C191.109 66.104 190.531 66.5341 190.438 66.4368C190.392 66.3959 190.484 66.2167 190.735 66.017C190.986 65.8224 191.411 65.6279 191.918 65.6176C192.42 65.6074 192.85 65.7815 193.101 65.9607C193.357 66.145 193.444 66.3191 193.398 66.3651V66.3703Z" fill="#263238"/>
<path d="M185.38 68.9464C185.405 69.3406 185.088 69.6888 184.678 69.7246C184.264 69.7605 183.91 69.4635 183.885 69.0693C183.859 68.675 184.177 68.3217 184.586 68.291C185.001 68.2552 185.354 68.5521 185.38 68.9464Z" fill="#263238"/>
<path d="M185.457 66.7443C185.364 66.8467 184.786 66.4422 183.977 66.4627C183.168 66.478 182.589 66.9081 182.497 66.8108C182.451 66.7699 182.543 66.5907 182.794 66.391C183.045 66.1964 183.47 66.0019 183.977 65.9916C184.479 65.9814 184.909 66.1555 185.16 66.3347C185.411 66.519 185.503 66.6931 185.457 66.7392V66.7443Z" fill="#263238"/>
<path d="M188.559 72.6581C188.559 72.6121 189.056 72.5097 189.865 72.3817C190.07 72.3561 190.264 72.31 190.295 72.1666C190.341 72.0181 190.249 71.798 190.141 71.5573C189.932 71.0607 189.716 70.5436 189.486 70.0009C188.575 67.789 187.909 65.9612 187.996 65.9253C188.083 65.8895 188.897 67.6559 189.809 69.8677C190.029 70.4156 190.239 70.9327 190.438 71.4345C190.525 71.6649 190.664 71.9311 190.566 72.2434C190.515 72.397 190.367 72.5148 190.234 72.5557C190.1 72.6018 189.988 72.6069 189.885 72.6121C189.066 72.6786 188.559 72.6991 188.554 72.653L188.559 72.6581Z" fill="#263238"/>
<path d="M189.389 82.2116C189.389 82.2116 185.457 82.5802 181.484 80.3428C181.484 80.3428 183.501 84.3108 189.348 83.5991L189.389 82.2116Z" fill="#EB996E"/>
<path d="M188.493 74.5829C188.088 74.0402 187.438 73.7228 186.829 73.7586C186.409 73.7842 185.999 73.9941 185.779 74.3679C185.559 74.7416 185.564 75.2895 185.836 75.6735C186.143 76.1036 186.706 76.2316 187.162 76.1087C187.617 75.9858 187.981 75.6632 188.329 75.3407C188.426 75.2536 188.524 75.1564 188.575 75.0284C188.626 74.9004 188.626 74.7314 188.534 74.6188" fill="#EB996E"/>
<path d="M186.199 73.2877C186.332 73.2774 186.358 74.153 187.126 74.7571C187.894 75.3613 188.826 75.2333 188.836 75.3562C188.851 75.4125 188.631 75.5303 188.237 75.5559C187.848 75.5815 187.279 75.4739 186.808 75.1053C186.337 74.7366 186.127 74.2298 186.086 73.8714C186.04 73.5078 186.132 73.2877 186.194 73.2877H186.199Z" fill="#263238"/>
<path d="M185.718 63.4054C185.646 63.6256 184.832 63.5488 183.89 63.687C182.943 63.8099 182.185 64.1068 182.052 63.9174C181.996 63.8252 182.118 63.6153 182.426 63.39C182.728 63.1699 183.209 62.9548 183.777 62.8729C184.346 62.7961 184.868 62.8729 185.216 63.0009C185.569 63.1289 185.749 63.2979 185.718 63.4054Z" fill="#263238"/>
<path d="M193.034 63.5953C192.896 63.7848 192.333 63.6107 191.667 63.6158C190.996 63.6005 190.433 63.7745 190.3 63.5851C190.239 63.4929 190.326 63.3086 190.566 63.1243C190.807 62.9451 191.212 62.7915 191.672 62.7915C192.133 62.7915 192.538 62.9502 192.773 63.1294C193.014 63.3137 193.096 63.4981 193.039 63.5902L193.034 63.5953Z" fill="#263238"/>
<path d="M198.313 62.623C198.042 61.7475 197.54 60.9078 196.767 60.4061C196.347 60.1296 195.855 59.9657 195.461 59.6483C194.616 58.9674 194.417 57.7744 193.894 56.8221C193.219 55.5933 191.918 54.728 190.525 54.5846C189.363 54.4669 188.17 54.815 187.039 54.5283C186.204 54.3184 185.472 53.7757 184.622 53.6118C182.973 53.2995 181.437 54.4822 180.239 55.6598C180.239 56.8425 181.176 57.631 182.083 58.3888C182.989 59.1466 184.238 59.4742 185.4 59.2643C186.301 59.1005 187.29 58.6448 188.073 59.1261C188.892 59.633 188.928 60.8669 189.655 61.5018C190.694 62.4029 192.348 61.5581 193.669 61.9472C194.688 62.2493 195.328 63.2221 196.004 64.0464C196.68 64.8656 197.699 65.6438 198.717 65.3418C198.651 64.4253 198.584 63.4985 198.313 62.623Z" fill="#263238"/>
<path d="M186.025 57.3188C185.252 57.0986 183.675 56.5969 183.26 55.9262C182.359 54.4721 180.777 53.4788 179.154 53.5658C177.536 53.6529 175.979 54.9329 175.647 56.643C173.686 56.6583 171.776 57.8871 170.834 59.7406C170.716 59.971 170.614 60.2116 170.527 60.4574C169.917 61.5326 169.8 62.8791 170.24 64.0362C170.506 64.7326 170.962 65.5108 170.603 66.1662C170.24 66.8318 169.318 66.8522 168.596 67.1031C167.347 67.5332 166.538 68.9719 166.815 70.2622C166.912 70.7281 167.137 71.1889 167.04 71.6548C166.938 72.1361 166.528 72.4791 166.205 72.858C165.417 73.795 165.171 75.162 165.586 76.3191C166.001 77.4711 167.06 78.3722 168.269 78.5873C168.817 78.6846 169.416 78.6641 169.887 78.9559C170.429 79.2939 170.67 79.9492 171.054 80.4561C171.791 81.4391 173.179 81.8692 174.346 81.4852C174.582 81.4084 174.802 81.2906 175.007 81.1524C175.375 81.6644 175.954 82.0074 176.937 82.0074L176.712 69.1204C176.835 69.3918 177.07 69.6375 177.495 69.7348C179.563 70.2007 179.866 65.9409 179.405 64.7838C180.152 64.1182 180.91 63.4474 181.478 62.6026C182.047 61.7578 182.554 59.459 182.431 58.4196C183.178 58.4657 186.353 57.4161 186.015 57.3188H186.025Z" fill="#263238"/>
<path d="M177.551 69.9492C177.49 68.6948 175.954 68.4235 174.863 69.0532C174.264 69.3963 173.809 70.0926 173.865 71.4238C174.013 74.9771 177.551 74.0964 177.551 73.994C177.551 73.9326 177.623 71.4136 177.551 69.9441V69.9492Z" fill="#FFBE9D"/>
<path d="M176.41 72.6993C176.41 72.6993 176.348 72.7453 176.246 72.7965C176.143 72.8477 175.969 72.8887 175.785 72.8273C175.406 72.7044 175.063 72.1207 175.017 71.4807C174.996 71.1581 175.048 70.8458 175.155 70.5847C175.252 70.3185 175.411 70.129 175.601 70.0881C175.785 70.0369 175.923 70.1444 175.974 70.2417C176.026 70.3389 176.005 70.4106 176.026 70.4157C176.036 70.426 176.097 70.3543 176.067 70.2058C176.051 70.1341 176.005 70.0522 175.918 69.9908C175.831 69.9242 175.703 69.8935 175.57 69.914C175.299 69.9447 175.058 70.2058 174.945 70.4925C174.817 70.7793 174.746 71.1274 174.771 71.4909C174.822 72.2077 175.217 72.8631 175.739 72.9911C175.99 73.0474 176.2 72.9604 176.302 72.8733C176.41 72.7812 176.425 72.6993 176.41 72.6941V72.6993Z" fill="#EB996E"/>
<path d="M181.028 56.6732C181.053 56.7091 180.669 56.7756 180.316 57.2672C179.963 57.7536 179.83 58.6803 180.055 59.7248L180.076 59.8169L179.989 59.8374C179.108 60.0576 178.14 60.7539 177.7 61.8547C177.597 62.126 177.526 62.4281 177.516 62.72C177.516 63.022 177.567 63.3344 177.628 63.6569C177.685 63.9795 177.751 64.3123 177.761 64.6707C177.787 65.0188 177.695 65.4233 177.48 65.7203C177.039 66.391 176.328 66.7238 175.718 67.0464C175.089 67.3587 174.51 67.6761 174.07 68.1267C173.169 69.0124 172.769 70.1593 172.744 71.1065C172.708 72.064 172.979 72.8217 173.21 73.303C173.445 73.7894 173.645 74.0198 173.624 74.0352C173.619 74.0403 173.568 73.984 173.471 73.8764C173.384 73.7638 173.256 73.5897 173.123 73.3491C172.856 72.8729 172.549 72.0998 172.565 71.1014C172.565 70.1132 172.969 68.9049 173.906 67.9628C174.367 67.4816 174.986 67.1385 175.606 66.8262C176.215 66.5036 176.886 66.176 177.27 65.582C177.664 65.0444 177.485 64.3379 177.382 63.703C177.326 63.3804 177.27 63.0528 177.275 62.7148C177.29 62.3769 177.367 62.0595 177.485 61.7676C177.976 60.59 179.011 59.8681 179.948 59.6531L179.881 59.7657C179.671 58.67 179.835 57.7075 180.239 57.2057C180.434 56.9548 180.649 56.8217 180.797 56.75C180.951 56.6886 181.033 56.663 181.033 56.6681L181.028 56.6732Z" fill="#455A64"/>
<path d="M175.084 74.0299C175.34 73.7534 175.713 73.4923 176.092 73.3643H176.015C176.087 73.3387 176.159 73.3335 176.23 73.3233C176.507 73.2567 176.783 73.2721 177.019 73.4206H177.014C177.444 73.5793 177.828 73.8967 178.038 74.3115C178.401 75.0334 178.268 75.9499 177.777 76.5899C177.352 77.1479 176.62 77.5115 175.939 77.3476C175.314 77.194 174.848 76.6308 174.674 76.0113C174.479 75.3355 174.602 74.547 175.084 74.0299Z" fill="#455A64"/>
<path d="M205.558 223.596C205.486 223.606 202.588 204.221 199.086 180.311C195.584 156.39 192.804 136.991 192.876 136.98C192.947 136.97 195.845 156.349 199.347 180.27C202.849 204.186 205.629 223.585 205.558 223.596Z" fill="#455A64"/>
<path d="M184.115 130.212C184.115 130.212 184.115 130.376 184.064 130.668C184.008 130.959 183.9 131.369 183.711 131.866C183.337 132.849 182.574 134.149 181.33 135.204C180.086 136.259 178.678 136.796 177.649 137.006C177.131 137.114 176.706 137.155 176.41 137.16C176.118 137.165 175.954 137.155 175.954 137.134C175.954 137.088 176.604 137.078 177.608 136.822C178.606 136.571 179.958 136.023 181.161 134.999C182.364 133.98 183.132 132.736 183.542 131.794C183.956 130.847 184.074 130.207 184.12 130.217L184.115 130.212Z" fill="#455A64"/>
<path d="M190.817 130.903C190.828 130.949 190.479 130.944 190.213 131.338C190.09 131.522 189.993 131.804 190.07 132.075C190.136 132.347 190.418 132.562 190.756 132.598C191.089 132.639 191.411 132.495 191.544 132.244C191.683 131.999 191.652 131.707 191.575 131.497C191.406 131.057 191.063 130.975 191.084 130.934C191.084 130.918 191.171 130.913 191.309 130.975C191.447 131.031 191.626 131.179 191.749 131.42C191.867 131.656 191.933 132.014 191.764 132.362C191.601 132.715 191.15 132.92 190.73 132.864C190.31 132.823 189.921 132.521 189.839 132.137C189.752 131.758 189.901 131.43 190.07 131.226C190.244 131.016 190.454 130.918 190.597 130.893C190.746 130.867 190.828 130.893 190.822 130.908L190.817 130.903Z" fill="#455A64"/>
<path d="M213.043 177.111C213.064 177.188 211.999 177.49 210.749 178.002C209.495 178.509 208.522 179.026 208.481 178.959C208.445 178.903 209.372 178.268 210.647 177.756C211.922 177.239 213.028 177.044 213.043 177.116V177.111Z" fill="#455A64"/>
<path d="M173.629 103.854C173.629 103.854 173.42 103.828 173.066 103.695C172.713 103.557 172.227 103.286 171.694 102.866C171.162 102.446 170.593 101.878 169.948 101.273C169.308 100.674 168.571 100.024 167.634 99.6811C166.702 99.3329 165.709 99.4302 164.885 99.6862C164.055 99.9422 163.369 100.357 162.821 100.731C161.731 101.499 161.106 102.052 161.075 102.011C161.065 101.995 161.208 101.847 161.485 101.596C161.761 101.345 162.171 100.982 162.714 100.577C163.256 100.183 163.948 99.7374 164.813 99.4558C165.663 99.1742 166.723 99.0564 167.726 99.4302C168.724 99.7988 169.482 100.48 170.117 101.094C170.757 101.714 171.305 102.292 171.812 102.717C172.815 103.598 173.65 103.798 173.629 103.849V103.854Z" fill="white"/>
<path d="M198.697 100.291C198.697 100.291 198.42 100.024 197.883 99.6096C197.345 99.2 196.495 98.6727 195.328 98.3399C194.171 98.0071 192.681 97.8995 191.15 98.3808C189.614 98.8519 188.134 99.8554 186.532 100.818C185.728 101.299 184.909 101.729 184.069 102.031C183.229 102.339 182.39 102.528 181.581 102.646C179.963 102.881 178.488 102.82 177.265 102.728C176.041 102.63 175.058 102.487 174.382 102.385C174.07 102.333 173.814 102.287 173.604 102.257C173.425 102.226 173.332 102.2 173.338 102.195C173.338 102.185 173.435 102.19 173.614 102.205C173.824 102.226 174.08 102.252 174.397 102.287C175.078 102.359 176.061 102.472 177.28 102.548C178.493 102.615 179.958 102.656 181.545 102.415C182.339 102.292 183.158 102.098 183.977 101.801C184.796 101.504 185.595 101.079 186.394 100.603C187.986 99.6506 189.491 98.6317 191.073 98.1607C192.655 97.6794 194.196 97.8125 195.374 98.176C196.562 98.5395 197.412 99.1079 197.939 99.5431C198.2 99.7683 198.395 99.9527 198.513 100.091C198.636 100.224 198.692 100.301 198.687 100.306L198.697 100.291Z" fill="white"/>
<path d="M203.976 100.122C204.006 100.122 203.986 100.47 203.745 100.967C203.515 101.458 203.013 102.088 202.25 102.467C201.482 102.841 200.678 102.851 200.146 102.733C199.608 102.62 199.322 102.421 199.337 102.395C199.352 102.354 199.659 102.487 200.177 102.549C200.689 102.61 201.426 102.574 202.132 102.231C202.834 101.883 203.32 101.325 203.581 100.88C203.848 100.434 203.935 100.112 203.976 100.122Z" fill="white"/>
<path d="M160.609 111.027C160.609 111.027 160.937 110.961 161.541 110.884C162.186 110.812 163.046 110.715 164.091 110.597C166.246 110.367 169.226 110.065 172.518 109.752C172.913 109.717 173.297 109.676 173.665 109.645L173.542 109.783C173.466 106.742 173.409 104.033 173.384 102.088C173.379 101.151 173.368 100.378 173.363 99.794C173.363 99.2564 173.373 98.9595 173.394 98.9595C173.409 98.9595 173.435 99.2564 173.466 99.794C173.491 100.378 173.527 101.151 173.568 102.088C173.645 104.033 173.732 106.737 173.814 109.778V109.906L173.691 109.916C173.327 109.952 172.938 109.988 172.544 110.029C169.252 110.341 166.272 110.613 164.111 110.797C163.067 110.879 162.202 110.945 161.551 110.997C160.947 111.038 160.609 111.053 160.609 111.032V111.027Z" fill="#263238"/>
<path d="M50.6778 218.383L39.593 224.614L29.4042 227.016C28.672 227.19 28.2368 227.947 28.457 228.669C28.5798 229.074 28.8922 229.391 29.2915 229.519C31.8464 230.359 41.257 233.185 41.8765 232.904C42.8595 232.458 54.1747 227.098 54.1747 227.098L50.6778 218.383Z" fill="#FF861A"/>
<g opacity="0.6">
<path d="M28.457 228.67L42.8032 232.489L42.327 232.74C41.8202 232.955 41.4413 233.027 40.9856 232.93C39.7671 232.664 36.4237 231.855 29.3069 229.556C28.8922 229.423 28.5696 229.09 28.457 228.67Z" fill="white"/>
</g>
<g opacity="0.6">
<path d="M45.1993 228.26C44.8563 228.08 44.3801 228.219 44.1907 228.551C44.0013 228.889 44.1344 229.371 44.4723 229.555C44.8153 229.739 45.3888 229.596 45.5424 229.237C45.696 228.879 45.5065 228.321 45.1328 228.224" fill="white"/>
</g>
<path d="M38.3181 228.106C38.2515 228.086 38.4358 227.4 38.2925 226.534C38.1594 225.669 37.7651 225.029 37.8214 224.998C37.8624 224.957 38.3693 225.592 38.5126 226.519C38.6662 227.446 38.3642 228.137 38.313 228.106H38.3181Z" fill="#263238"/>
<path d="M40.9754 227.471C40.8935 227.476 40.8218 226.719 40.4224 225.894C40.0333 225.065 39.4855 224.537 39.5418 224.476C39.5828 224.415 40.2535 224.886 40.6733 225.777C41.1034 226.662 41.0471 227.481 40.9754 227.471Z" fill="#263238"/>
<path d="M43.2435 226.406C43.1616 226.406 43.2026 225.582 42.7111 224.752C42.2349 223.907 41.5027 223.534 41.5437 223.462C41.5591 223.431 41.7639 223.477 42.0506 223.656C42.3373 223.836 42.6906 224.158 42.9517 224.609C43.2128 225.059 43.3152 225.53 43.3255 225.863C43.3357 226.201 43.2743 226.406 43.2435 226.401V226.406Z" fill="#263238"/>
<path d="M43.2794 224.006C43.2794 224.006 43.4074 223.888 43.6941 223.765C43.9808 223.647 44.4211 223.509 44.9843 223.509C45.2557 223.519 45.5936 223.504 45.9059 223.739C46.0646 223.857 46.1568 224.103 46.08 224.313C46.0032 224.523 45.8445 224.661 45.6653 224.758C44.9485 225.127 43.9296 224.881 43.4022 224.134C42.8851 223.376 42.9568 222.403 43.4022 221.758C43.5251 221.604 43.6941 221.451 43.9296 221.435C44.1651 221.42 44.3648 221.604 44.4211 221.784C44.5491 222.142 44.4672 222.454 44.4314 222.726C44.3238 223.279 44.1293 223.693 43.9654 223.955C43.8067 224.221 43.6838 224.344 43.6685 224.333C43.6173 224.308 44.0678 223.755 44.2317 222.69C44.2624 222.429 44.3085 222.116 44.201 221.866C44.1498 221.743 44.0525 221.666 43.9347 221.676C43.8221 221.681 43.6941 221.779 43.6019 221.907C43.2435 222.444 43.177 223.335 43.6275 223.97C44.0678 224.605 44.9587 224.82 45.5424 224.528C45.6806 224.456 45.7984 224.344 45.8445 224.226C45.8854 224.108 45.8496 223.99 45.7523 223.908C45.5475 223.734 45.2352 223.714 44.9741 223.699C43.8989 223.663 43.2845 224.052 43.2691 223.995L43.2794 224.006Z" fill="#263238"/>
<path d="M56.6989 221.209L64.1433 227.742C64.1433 227.742 60.0013 237.501 61.2557 238.843L74.4448 224.865L63.2678 214.205L56.6989 221.204V221.209Z" fill="#FF861A"/>
<path d="M67.6147 222.853C67.9424 222.653 68.4237 222.751 68.6387 223.073C68.8538 223.396 68.7565 223.882 68.4288 224.092C68.1011 224.297 67.5226 224.195 67.3434 223.852C67.1642 223.508 67.3127 222.94 67.6762 222.817" fill="#E0E0E0"/>
<g opacity="0.6">
<path d="M74.4448 224.87L73.2774 223.841L61.0662 237.624C61.0662 237.624 60.7488 238.499 61.2557 238.842L74.4448 224.865V224.87Z" fill="white"/>
</g>
<path d="M63.8566 227.907C63.9283 227.968 64.2815 227.656 64.814 227.528C65.3465 227.385 65.8073 227.492 65.838 227.405C65.8841 227.328 65.3823 227.047 64.7321 227.216C64.0819 227.38 63.7747 227.866 63.8515 227.912L63.8566 227.907Z" fill="#263238"/>
<path d="M63.0784 229.944C63.1296 230.021 63.5238 229.837 64.0307 229.878C64.5376 229.904 64.9062 230.139 64.9676 230.067C65.0393 230.011 64.686 229.591 64.0512 229.55C63.4214 229.504 63.0118 229.883 63.0784 229.944Z" fill="#263238"/>
<path d="M64.0511 232.432C64.1228 232.386 63.8719 231.966 63.3343 231.792C62.7967 231.613 62.3462 231.792 62.3769 231.874C62.3974 231.966 62.7916 231.946 63.232 232.099C63.6774 232.243 63.9795 232.494 64.0511 232.432Z" fill="#263238"/>
<path d="M62.3258 226.227C62.4129 226.258 62.6177 225.854 63.0068 225.495C63.3908 225.126 63.8004 224.947 63.7799 224.855C63.7697 224.768 63.2372 224.824 62.7866 225.254C62.3309 225.685 62.2439 226.207 62.3309 226.227H62.3258Z" fill="#263238"/>
<path d="M60.8512 224.881C60.8768 224.906 61.1737 224.676 61.5065 224.179C61.6704 223.929 61.8393 223.611 61.9725 223.237C62.039 223.048 62.0953 222.848 62.1363 222.633C62.1568 222.531 62.1875 222.413 62.1721 222.265C62.1721 222.121 62.0339 221.906 61.8393 221.891C61.6653 221.86 61.4963 221.942 61.399 222.044C61.2966 222.142 61.2403 222.249 61.1891 222.341C61.0816 222.531 60.9945 222.725 60.928 222.92C60.8 223.304 60.7488 223.662 60.7437 223.964C60.7385 224.574 60.887 224.922 60.9229 224.912C60.9741 224.901 60.9075 224.543 60.9741 223.98C61.0048 223.698 61.0765 223.37 61.2096 223.022C61.2761 222.848 61.3632 222.674 61.4656 222.505C61.568 222.321 61.6857 222.193 61.7881 222.218C61.824 222.229 61.8393 222.234 61.8496 222.306C61.8598 222.377 61.8393 222.474 61.824 222.572C61.7881 222.771 61.7421 222.961 61.6857 223.14C61.5782 223.498 61.44 223.811 61.3069 224.062C61.0406 224.569 60.8102 224.85 60.8512 224.881Z" fill="#263238"/>
<path d="M61.0304 224.886C61.0611 224.871 60.9484 224.507 60.5286 224.062C60.3187 223.842 60.032 223.617 59.6736 223.432C59.4944 223.345 59.2947 223.263 59.0796 223.207C58.8646 223.161 58.583 223.084 58.3065 223.32C58.1683 223.453 58.1683 223.668 58.2246 223.796C58.2758 223.929 58.3475 224.016 58.414 224.108C58.5523 224.287 58.7161 224.436 58.8851 224.553C59.223 224.789 59.5865 224.902 59.8886 224.937C60.5081 225.004 60.8563 224.799 60.8409 224.769C60.8307 224.712 60.4723 224.825 59.9244 224.707C59.6582 224.651 59.3408 224.528 59.0592 224.308C58.9158 224.2 58.7827 224.067 58.6649 223.913C58.5369 223.75 58.4704 223.581 58.5369 223.54C58.6035 223.468 58.8236 223.458 58.9977 223.509C59.1923 223.555 59.3715 223.622 59.5404 223.693C59.8732 223.842 60.1548 224.036 60.3648 224.216C60.7948 224.584 60.9792 224.897 61.0252 224.871L61.0304 224.886Z" fill="#263238"/>
<path d="M56.6988 200.904L48.3583 192.661L65.2185 161.705C66.7647 159.934 68.7257 158.572 70.9273 157.737L76.1651 155.746L89.2927 154.66L97.3721 157C99.7068 157.922 102.656 159.601 102.359 162.094L99.4713 183.148L98.0479 209.649L62.7148 200.95L70.5535 190.802L67.7273 178.74L56.7039 200.909L56.6988 200.904Z" fill="#455A64"/>
<path d="M69.6627 196.644L87.8848 189.353C89.5232 188.693 90.071 186.89 90.2042 185.129L91.689 165.673C91.689 165.673 91.5149 157.399 96.681 156.995L99.6198 158.152C103.419 160.169 104.361 165.704 103.844 169.974C103.107 176.046 102.804 184.632 101.98 189.901C101.309 194.212 98.7187 197.622 94.6227 199.112L71.6698 204.032L69.6627 196.639V196.644Z" fill="#455A64"/>
<path d="M70.3487 197.289H67.8912C67.8912 197.289 62.3462 195.287 61.2044 195.477C60.1753 195.651 56.4172 198.144 55.68 198.641C55.598 198.697 55.5366 198.774 55.5008 198.866C55.3523 199.27 55.5468 199.726 55.9513 199.89L56.0281 199.921L55.9923 200.033C55.9513 200.172 55.9257 200.33 55.936 200.484C55.9616 201.011 56.6732 201.17 56.9446 200.719L56.8012 200.97C56.7449 201.073 56.7142 201.19 56.7244 201.308L56.7347 201.539C56.75 201.795 56.919 202.01 57.1596 202.092C57.39 202.168 57.6409 202.102 57.8048 201.923C58.2809 201.4 59.31 200.346 60.0064 200.233C60.6259 200.131 61.6601 200.115 62.2796 200.12C62.5971 200.12 62.8787 200.315 62.9964 200.612C62.5817 200.643 59.7043 202.143 58.6803 202.68C58.3628 202.844 58.1273 203.146 58.0864 203.5C58.0505 203.817 58.2092 204.155 58.8441 204.006C60.2009 203.689 62.638 202.568 62.638 202.568C62.638 202.568 63.8976 202.209 64.7116 202.783C65.8585 203.592 66.3808 203.889 67.3689 203.561C68.352 203.233 69.079 202.767 69.079 202.767L71.0195 202.573C71.0195 202.573 72.8524 197.99 70.3487 197.289Z" fill="#916B5C"/>
<path d="M63.0273 198.221C63.0273 198.221 62.633 198.118 61.9879 198.077C61.3428 198.031 60.4314 198.108 59.5201 198.497C58.6087 198.886 57.9226 199.495 57.5079 199.992C57.0881 200.489 56.9089 200.857 56.8935 200.842C56.8884 200.842 56.9293 200.745 57.0164 200.586C57.1034 200.427 57.2468 200.202 57.4516 199.941C57.8561 199.429 58.5473 198.794 59.4791 198.4C60.4109 198.006 61.3428 197.939 61.993 198C62.3207 198.031 62.5818 198.082 62.761 198.128C62.9402 198.174 63.0324 198.21 63.0324 198.215L63.0273 198.221Z" fill="#6D5046"/>
<path d="M62.4435 196.875C62.4435 196.875 62.0441 196.706 61.358 196.685C60.6822 196.654 59.7299 196.859 58.8339 197.397C57.943 197.94 57.2774 198.626 56.8012 199.117C56.5759 199.358 56.3916 199.557 56.2431 199.711C56.11 199.849 56.0383 199.926 56.0281 199.921C56.023 199.921 56.0895 199.834 56.2124 199.685C56.3353 199.537 56.5145 199.327 56.7449 199.071C57.2057 198.564 57.8713 197.863 58.7775 197.315C59.6838 196.767 60.6668 196.567 61.358 196.619C61.7062 196.639 61.9827 196.701 62.1619 196.767C62.254 196.793 62.3206 196.829 62.3718 196.849C62.4179 196.869 62.4435 196.88 62.4383 196.885L62.4435 196.875Z" fill="#6D5046"/>
<path d="M93.143 168.643C93.143 168.643 93.1123 168.796 93.0815 169.088C93.0508 169.405 93.0099 169.83 92.9587 170.368C92.8614 171.51 92.7231 173.112 92.5593 175.089C92.4006 177.091 92.206 179.461 91.9961 182.088C91.9449 182.748 91.8937 183.424 91.8374 184.11C91.7811 184.801 91.7401 185.508 91.5967 186.194C91.4585 186.88 91.1462 187.525 90.6547 188.017C90.1631 188.508 89.5436 188.872 88.9036 189.184C83.671 191.606 78.8479 193.603 75.3459 195.005C73.6102 195.692 72.1919 196.25 71.1884 196.644C70.7123 196.833 70.3385 196.982 70.0569 197.089C69.8009 197.192 69.6678 197.253 69.6678 197.263C69.6678 197.274 69.8111 197.233 70.0723 197.14C70.3539 197.043 70.7379 196.91 71.2191 196.741C72.2124 196.388 73.646 195.86 75.4073 195.185C78.9299 193.828 83.7631 191.857 89.0111 189.43C89.6614 189.112 90.3065 188.739 90.8287 188.211C91.3612 187.689 91.6991 186.972 91.8425 186.25C91.9961 185.528 92.0319 184.817 92.0831 184.131C92.1343 183.439 92.1855 182.764 92.2316 182.103C92.4211 179.471 92.5951 177.101 92.7385 175.094C92.8716 173.117 92.9843 171.51 93.0611 170.368C93.0918 169.83 93.1174 169.4 93.1379 169.083C93.1532 168.791 93.1532 168.632 93.1481 168.632L93.143 168.643Z" fill="#263238"/>
<path d="M96.0921 192.839C96.1177 192.834 96.0358 192.399 95.7235 191.759C95.4163 191.119 94.8479 190.295 94.0185 189.583C93.1891 188.877 92.2828 188.441 91.607 188.242C90.926 188.037 90.4857 188.016 90.4806 188.047C90.4703 188.093 90.9004 188.175 91.5455 188.426C92.1907 188.672 93.0457 189.112 93.8444 189.793C94.6431 190.479 95.2115 191.252 95.5545 191.851C95.8975 192.45 96.0511 192.86 96.0921 192.845V192.839Z" fill="#263238"/>
<g opacity="0.3">
<path d="M74.5932 194.934C76.7641 193.71 78.8889 192.768 81.157 191.734C83.4252 190.705 85.6473 189.379 87.1321 187.377C89.9327 183.603 89.6153 178.156 92.4825 174.428C92.293 176.932 92.1087 179.441 91.9193 181.944C91.7452 184.238 92.0985 186.511 90.6188 188.073C89.3746 189.389 86.9426 190.398 85.2223 190.961C81.7663 192.102 78.0441 193.792 74.5881 194.934" fill="black"/>
</g>
<path d="M34.0583 193.925C34.0583 193.925 29.6295 195.507 29.6141 200.473C29.5783 209.986 48.8295 220.467 48.8295 220.467L74.45 203.489L76.0576 202.839C76.0576 202.839 41.472 189.844 34.0583 193.925Z" fill="#263238"/>
<path d="M61.4707 212.065C61.4707 212.065 61.2249 211.917 60.8051 211.614C60.3853 211.312 59.7862 210.857 59.0541 210.294C57.5846 209.162 55.5929 207.554 53.4425 205.711C51.2973 203.868 49.4029 202.137 48.0614 200.857C47.3907 200.217 46.8531 199.695 46.4896 199.326C46.1261 198.958 45.9264 198.748 45.9417 198.738C45.952 198.722 46.1721 198.912 46.5613 199.255C46.9811 199.634 47.5289 200.13 48.1894 200.724C49.5616 201.968 51.4713 203.673 53.6166 205.517C55.7619 207.355 57.7331 208.983 59.1718 210.155C59.863 210.718 60.4365 211.184 60.8717 211.543C61.271 211.87 61.4861 212.06 61.4758 212.075L61.4707 212.065Z" fill="#455A64"/>
<path d="M41.2877 197.478C41.2774 197.417 42.4192 197.304 43.7555 197.704C45.0969 198.093 45.9929 198.81 45.952 198.856C45.911 198.922 44.9741 198.328 43.6838 197.955C42.3936 197.565 41.2877 197.56 41.2877 197.478Z" fill="#455A64"/>
<path d="M43.4943 195.978C43.5148 195.917 44.3391 196.275 45.015 197.12C45.6959 197.96 45.8751 198.835 45.8137 198.846C45.7369 198.871 45.4604 198.072 44.8153 197.284C44.1804 196.485 43.4585 196.045 43.4994 195.978H43.4943Z" fill="#455A64"/>
<path d="M35.8861 180.413L43.177 200.049C43.5917 201.17 44.6721 201.907 45.865 201.892L85.9853 201.364V198.318L71.0964 198.861L64.7732 179.261C64.5581 178.601 63.9437 178.15 63.2474 178.15L37.3658 178.227C36.2394 178.227 35.4714 179.364 35.881 180.413H35.8861Z" fill="#E0E0E0"/>
<path d="M35.886 180.413C35.886 180.413 35.886 180.393 35.8707 180.352C35.8604 180.311 35.8348 180.254 35.8195 180.167C35.7836 180.004 35.7529 179.748 35.8348 179.43C35.9168 179.118 36.1267 178.734 36.5414 178.483C36.7462 178.355 36.992 178.268 37.2685 178.252C37.5449 178.242 37.8419 178.252 38.1593 178.247C40.6886 178.247 44.3597 178.242 48.9574 178.237C51.2563 178.237 53.7907 178.227 56.5248 178.222C57.8918 178.222 59.3101 178.217 60.7744 178.212C61.5065 178.212 62.2541 178.212 63.0067 178.212C63.3856 178.191 63.7542 178.242 64.0768 178.447C64.3891 178.647 64.6349 178.954 64.7424 179.323C66.6521 185.252 68.7769 191.841 71.0451 198.886L71.0604 198.932H71.1065C75.8528 198.758 80.855 198.574 85.9955 198.389L85.9289 198.323V201.369L85.9904 201.303C77.015 201.42 68.4953 201.538 60.759 201.641C56.8934 201.692 53.2224 201.743 49.792 201.789C48.9318 201.799 48.0921 201.815 47.2627 201.825C46.848 201.83 46.4384 201.835 46.0339 201.84C45.6294 201.856 45.2352 201.81 44.8665 201.671C44.1344 201.4 43.5353 200.821 43.2588 200.125C42.9926 199.413 42.7315 198.712 42.4755 198.031C40.4429 192.578 38.7993 188.175 37.6627 185.129C37.0944 183.613 36.6541 182.436 36.352 181.632C36.0499 180.833 35.886 180.418 35.886 180.418C35.886 180.418 36.0345 180.843 36.3264 181.642C36.6233 182.451 37.0585 183.628 37.6166 185.149C38.743 188.201 40.3712 192.609 42.3885 198.067C42.6445 198.748 42.9004 199.449 43.1667 200.166C43.4534 200.888 44.0678 201.492 44.8256 201.769C45.2045 201.912 45.6192 201.963 46.0288 201.948C46.4333 201.948 46.8429 201.938 47.2576 201.932C48.087 201.922 48.9267 201.912 49.7868 201.902C53.2172 201.861 56.8883 201.815 60.7539 201.764C68.4902 201.661 77.0099 201.554 85.9853 201.436H86.0467V201.369C86.0467 200.576 86.0467 199.721 86.0467 198.866V198.256H85.9801C80.8396 198.446 75.8374 198.63 71.0912 198.804L71.1526 198.85C68.8793 191.805 66.7494 185.216 64.8345 179.292C64.7219 178.908 64.4608 178.57 64.1229 178.36C63.7901 178.14 63.3702 178.089 62.9965 178.109C62.2387 178.109 61.4963 178.114 60.7641 178.119C59.2998 178.124 57.8816 178.13 56.5145 178.135C53.7805 178.145 51.2512 178.155 48.9472 178.165C44.3494 178.186 40.6784 178.201 38.1491 178.217C37.8317 178.217 37.5347 178.217 37.2582 178.227C36.9766 178.247 36.7206 178.34 36.5158 178.468C36.096 178.729 35.8912 179.123 35.8093 179.44C35.7325 179.763 35.7632 180.024 35.8041 180.188C35.8451 180.352 35.8809 180.428 35.8809 180.428L35.886 180.413Z" fill="#263238"/>
<path d="M53.6781 187.837C53.1559 187.484 52.1984 187.628 51.7274 188.047C51.2615 188.467 51.1079 189.194 51.3434 189.773C51.5789 190.357 52.1831 190.761 52.8077 190.797C53.4733 190.833 54.1696 190.413 54.3591 189.773C54.5434 189.133 54.3386 188.175 53.6781 187.837Z" fill="white"/>
<path d="M44.5081 221.531C44.5081 221.531 80.6656 198.369 82.263 197.462C83.6198 196.689 87.255 194.452 90.8339 195.44C94.4179 196.428 97.6281 199.638 99.2358 204.333C100.152 207.016 100.587 211.588 100.792 215.024C101.033 219.125 100.5 222.54 97.8176 225.653C96.599 227.071 95.0886 228.3 93.3017 228.858C92.9228 228.976 92.5337 229.078 92.1344 229.165C85.2889 230.65 77.5219 228.254 73.6768 222.402L72.832 221.117C72.832 221.117 49.152 229.816 48.7833 229.693L44.5132 221.537L44.5081 221.531Z" fill="#263238"/>
<path d="M89.2928 214.999C89.2928 214.999 89.2263 215.035 89.0931 215.086C88.9498 215.142 88.7552 215.219 88.4992 215.322C87.9668 215.526 87.1936 215.823 86.2055 216.207C84.1933 216.965 81.2852 218.061 77.6756 219.423C74.0506 220.774 69.714 222.382 64.8448 224.154C59.9757 225.925 54.5792 227.865 48.8141 229.816L48.7117 229.852L48.6605 229.755C47.7543 228.029 46.8019 226.202 45.8343 224.353C45.3427 223.411 44.8512 222.474 44.3904 221.599L44.3341 221.491L44.4365 221.43C55.3063 214.528 65.0292 208.358 72.0487 203.899C75.5508 201.687 78.3821 199.905 80.3431 198.666C81.3159 198.062 82.0736 197.586 82.5959 197.258C82.8468 197.105 83.0413 196.987 83.1847 196.9C83.3178 196.818 83.3895 196.787 83.3895 196.787C83.3895 196.787 83.328 196.838 83.2 196.925C83.0618 197.018 82.8724 197.145 82.6266 197.304C82.1095 197.642 81.3619 198.129 80.3994 198.748C78.4487 200.002 75.6327 201.81 72.1511 204.047C65.1469 208.522 55.4343 214.717 44.585 221.645L44.6311 221.476C45.0867 222.351 45.5783 223.288 46.0749 224.23C47.0426 226.079 47.9949 227.906 48.9011 229.632L48.7475 229.57C54.5075 227.625 59.904 225.69 64.7783 223.933C69.6423 222.162 73.9891 220.58 77.6295 219.259C81.2493 217.928 84.1677 216.863 86.185 216.12C87.1834 215.757 87.9565 215.475 88.4941 215.281C88.7501 215.188 88.9498 215.117 89.0931 215.066C89.2263 215.019 89.298 214.999 89.298 214.999H89.2928Z" fill="#455A64"/>
<path d="M69.76 132.429C69.76 132.429 67.5891 141.752 67.5891 148.301V150.482C67.5891 150.482 73.1904 154.834 77.7779 154.962L81.3056 145.408L69.76 132.429Z" fill="#263238"/>
<path d="M94.1773 137.313C92.9895 132.838 92.4161 127.605 88.5709 124.789C85.7191 122.7 82.5293 122.194 79.0017 122.455C77.266 122.583 75.3255 123.448 73.8407 124.359C71.8029 125.603 70.9991 128.015 70.0673 130.217C68.1985 134.62 68.6439 140.487 70.057 142.08L88.5044 151.065C92.0628 149.063 94.3104 148.239 94.7303 143.39C94.9095 141.353 94.6996 139.294 94.1773 137.318V137.313Z" fill="#263238"/>
<path d="M88.2943 128.379L76.7743 125.384C73.0828 124.969 70.5945 129.5 70.3334 133.212C70.0467 137.334 69.8572 142.372 70.3231 145.449C71.2652 151.639 75.9961 152.458 75.9961 152.458C75.9961 152.438 76.0115 152.551 76.0319 154.389L76.0063 157.369C75.9961 158.572 76.3545 159.775 77.1225 160.702C78.8787 162.827 81.9558 163.021 85.5295 161.562C87.6031 160.717 89.006 159.109 89.0982 156.979L90.2246 130.596C90.2553 129.47 89.4156 128.502 88.2943 128.379Z" fill="#916B5C"/>
<path d="M71.8336 139.202C71.8183 139.622 72.1562 139.981 72.5914 140.006C73.0266 140.032 73.3952 139.714 73.4157 139.295C73.4311 138.875 73.0932 138.516 72.658 138.491C72.2228 138.465 71.8541 138.783 71.8336 139.202Z" fill="#263238"/>
<path d="M71.4086 136.903C71.5059 137.006 72.1101 136.566 72.9651 136.576C73.8202 136.576 74.4397 137.016 74.5318 136.909C74.5779 136.862 74.4806 136.673 74.2093 136.473C73.943 136.274 73.4874 136.079 72.9549 136.079C72.4224 136.079 71.977 136.274 71.7158 136.468C71.4496 136.668 71.3626 136.852 71.4086 136.898V136.903Z" fill="#263238"/>
<path d="M79.3395 139.202C79.3241 139.622 79.6621 139.981 80.0973 140.006C80.5325 140.032 80.9011 139.714 80.9216 139.295C80.9369 138.875 80.599 138.516 80.1638 138.491C79.7286 138.465 79.36 138.783 79.3395 139.202Z" fill="#263238"/>
<path d="M79.7953 136.73C79.8925 136.832 80.4967 136.392 81.3517 136.402C82.2017 136.402 82.8263 136.843 82.9185 136.735C82.9645 136.689 82.8673 136.5 82.5959 136.3C82.3297 136.1 81.874 135.906 81.3415 135.906C80.809 135.906 80.3636 136.1 80.1025 136.295C79.8413 136.495 79.7492 136.679 79.7953 136.725V136.73Z" fill="#263238"/>
<path d="M76.6516 142.367C76.6516 142.321 76.1242 142.223 75.2692 142.106C75.049 142.08 74.8442 142.039 74.8084 141.891C74.7572 141.732 74.8494 141.496 74.9569 141.246C75.1668 140.718 75.3818 140.17 75.6122 139.592C76.5236 137.237 77.1841 135.296 77.0868 135.26C76.9895 135.224 76.1754 137.103 75.2641 139.464C75.0439 140.042 74.834 140.6 74.6343 141.128C74.5524 141.374 74.4039 141.655 74.5166 141.983C74.5729 142.147 74.7316 142.264 74.875 142.305C75.0132 142.346 75.1361 142.351 75.2436 142.362C76.1089 142.413 76.6465 142.423 76.6465 142.372L76.6516 142.367Z" fill="#263238"/>
<path d="M75.9961 152.459C75.9961 152.459 80.1536 152.756 84.2906 150.309C84.2906 150.309 82.2118 154.62 76.0269 154L75.991 152.459H75.9961Z" fill="#6D5046"/>
<path d="M79.4624 143.98C79.2217 143.581 78.7814 143.371 78.3257 143.35C77.6704 143.325 77.1225 143.545 76.6976 144.144C76.5491 144.318 76.5593 144.809 76.6208 144.942C76.6771 145.081 76.6361 145.014 76.7385 145.106C77.1174 145.444 77.5168 145.787 78.0083 145.905C78.4998 146.028 79.104 145.869 79.4265 145.393C79.7133 144.968 79.7082 144.374 79.4675 143.975L79.4624 143.98Z" fill="#6D5046"/>
<path d="M79.3139 143.007C79.1756 142.996 79.1603 143.923 78.3616 144.568C77.5628 145.219 76.5747 145.101 76.5696 145.229C76.5542 145.285 76.7897 145.413 77.2044 145.428C77.614 145.449 78.2131 145.326 78.6995 144.927C79.1859 144.527 79.4009 143.995 79.4367 143.616C79.4777 143.227 79.3753 142.996 79.3139 143.002V143.007Z" fill="#263238"/>
<path d="M79.3702 133.622C79.4368 133.857 80.297 133.806 81.2902 133.99C82.2835 134.154 83.072 134.497 83.2205 134.303C83.287 134.205 83.159 133.98 82.8467 133.734C82.5395 133.489 82.0378 133.243 81.4438 133.14C80.8499 133.038 80.2918 133.094 79.9181 133.222C79.5443 133.345 79.3446 133.514 79.3754 133.627L79.3702 133.622Z" fill="#263238"/>
<path d="M71.4036 134.61C71.6033 134.774 72.2125 134.456 72.9908 134.313C73.7639 134.139 74.45 134.185 74.5677 133.96C74.6189 133.852 74.4807 133.678 74.1581 133.55C73.8407 133.422 73.3441 133.355 72.8116 133.468C72.2791 133.581 71.849 133.832 71.6135 134.077C71.3729 134.323 71.3165 134.533 71.4087 134.615L71.4036 134.61Z" fill="#263238"/>
<path d="M76.9127 124.713C76.9024 124.759 76.8973 124.805 76.887 124.846L76.9075 124.856C76.9075 124.81 76.9075 124.759 76.9075 124.713H76.9127Z" fill="#263238"/>
<path d="M85.8726 154.634C85.9955 153.011 85.2889 151.404 85.4272 149.781C85.5706 148.06 86.6355 146.555 87.0349 144.871C87.68 142.177 86.5843 139.377 86.1286 136.632C84.5773 136.494 83.1027 135.608 82.0377 134.446C80.7526 133.043 79.9437 131.277 79.1603 129.541C79.2576 131.262 79.9129 132.946 80.9984 134.287C80.3174 134.451 79.5853 134.185 79.0528 133.724C78.5203 133.269 78.1619 132.639 77.8649 132.009C77.143 130.473 76.7232 128.799 76.6106 127.104C76.4621 129.536 76.8102 132.004 77.655 134.293C77.2198 134.175 76.759 134.308 76.3136 134.39C75.8682 134.472 75.3561 134.472 75.0285 134.159C74.8083 133.95 74.7213 133.642 74.6496 133.345C74.1581 131.297 74.0147 129.162 74.24 127.068C73.728 128.215 73.216 129.372 72.9344 130.596C72.6528 131.82 72.6118 133.13 73.0317 134.313C72.8627 134.543 72.4838 134.523 72.2637 134.334C72.0486 134.144 71.9565 133.852 71.9001 133.571C71.7056 132.536 71.8541 131.477 72.0026 130.437C71.4189 131.553 71.255 132.828 70.953 134.052C70.6509 135.271 70.1491 136.53 69.12 137.252C68.8793 135.45 68.9049 134.211 69.12 132.506C69.2838 131.205 69.8573 129.9 70.3846 128.696C70.9785 127.35 71.8182 126.024 72.7757 125.128C74.5421 123.474 75.3254 124.135 76.5081 124.708L76.6464 124.759C76.6464 124.728 76.6464 124.703 76.6515 124.672L76.6976 124.421C79.6979 123.643 82.9133 123.689 85.8931 124.554C88.1049 125.199 90.8749 127.36 92.0576 129.342C92.0781 129.377 92.1037 129.418 92.1241 129.454C94.8582 134.031 96.9677 140.616 95.3549 151.373L85.8726 154.639V154.634Z" fill="#263238"/>
<path d="M68.7974 167.117C67.8195 170.045 66.8262 173.02 66.6726 176.102C66.5139 179.185 67.2921 182.451 69.4272 184.678" fill="#455A64"/>
<path d="M69.4272 184.678C69.4272 184.678 69.3709 184.642 69.2838 184.555C69.1968 184.468 69.0585 184.345 68.9101 184.161C68.5977 183.808 68.1933 183.25 67.799 182.502C67.0003 181.012 66.3961 178.672 66.5395 176.092C66.6829 173.511 67.3587 171.259 67.8707 169.666C68.1318 168.868 68.3571 168.228 68.5209 167.787C68.6848 167.347 68.7821 167.106 68.8025 167.111C68.8179 167.117 68.7565 167.367 68.6233 167.818C68.4749 168.315 68.2854 168.955 68.055 169.717C67.5942 171.32 66.9542 173.563 66.8109 176.102C66.6726 178.642 67.2307 180.935 67.9731 182.415C68.7053 183.915 69.4835 184.637 69.4374 184.673L69.4272 184.678Z" fill="#263238"/>
<path d="M103.956 168.643C103.956 168.643 103.967 168.76 103.962 168.981C103.951 169.226 103.941 169.549 103.926 169.943C103.885 170.778 103.808 171.986 103.695 173.476C103.475 176.461 103.06 180.567 102.671 185.114C102.518 187.392 102.154 189.558 101.668 191.478C101.417 192.435 101.146 193.352 100.721 194.145C100.291 194.929 99.753 195.574 99.1846 196.081C98.0429 197.089 96.8704 197.54 96.0717 197.77C95.6672 197.888 95.3446 197.949 95.1296 197.98C94.9094 198.011 94.7968 198.026 94.7968 198.016C94.7917 197.99 95.2525 197.924 96.0461 197.673C96.8294 197.412 97.9712 196.946 99.0669 195.942C99.6096 195.441 100.127 194.811 100.531 194.043C100.931 193.275 101.192 192.374 101.432 191.421C101.903 189.512 102.252 187.366 102.41 185.093C102.794 180.547 103.24 176.44 103.511 173.461C103.644 171.996 103.752 170.798 103.828 169.933C103.864 169.539 103.895 169.221 103.916 168.975C103.936 168.755 103.956 168.643 103.962 168.643H103.956Z" fill="#263238"/>
</svg>
