<svg width="24" height="24" viewBox="0 0 24 24" fill="none" xmlns="http://www.w3.org/2000/svg">
<path fill-rule="evenodd" clip-rule="evenodd" d="M22 12C22 17.5242 17.5242 22 12 22C6.47581 22 2 17.5242 2 12C2 6.47581 6.47581 2 12 2C17.5242 2 22 6.47581 22 12ZM7.32258 12.7258C7.05645 12.7258 6.83871 12.5081 6.83871 12.2419V11.7581C6.83871 11.4919 7.05645 11.2742 7.32258 11.2742H16.6774C16.9435 11.2742 17.1613 11.4919 17.1613 11.7581V12.2419C17.1613 12.5081 16.9435 12.7258 16.6774 12.7258H7.32258ZM12 3.29032C16.7863 3.29032 20.7097 7.16532 20.7097 12C20.7097 16.7863 16.8347 20.7097 12 20.7097C7.21371 20.7097 3.29032 16.8347 3.29032 12C3.29032 7.21371 7.16532 3.29032 12 3.29032Z" fill="#FF861A"/>
<mask id="mask0_268_18386" style="mask-type:alpha" maskUnits="userSpaceOnUse" x="2" y="2" width="20" height="20">
<path fill-rule="evenodd" clip-rule="evenodd" d="M22 12C22 17.5242 17.5242 22 12 22C6.47581 22 2 17.5242 2 12C2 6.47581 6.47581 2 12 2C17.5242 2 22 6.47581 22 12ZM7.32258 12.7258C7.05645 12.7258 6.83871 12.5081 6.83871 12.2419V11.7581C6.83871 11.4919 7.05645 11.2742 7.32258 11.2742H16.6774C16.9435 11.2742 17.1613 11.4919 17.1613 11.7581V12.2419C17.1613 12.5081 16.9435 12.7258 16.6774 12.7258H7.32258ZM12 3.29032C16.7863 3.29032 20.7097 7.16532 20.7097 12C20.7097 16.7863 16.8347 20.7097 12 20.7097C7.21371 20.7097 3.29032 16.8347 3.29032 12C3.29032 7.21371 7.16532 3.29032 12 3.29032Z" fill="white"/>
</mask>
<g mask="url(#mask0_268_18386)">
<rect width="24" height="24" fill="#FF861A"/>
</g>
</svg>
